<svg width="110" height="115" viewBox="0 0 110 115" fill="none" xmlns="http://www.w3.org/2000/svg">
<rect width="110" height="115" fill="white"/>
<rect width="110" height="10" fill="#1D70B8"/>
<rect x="1" y="11" width="108" height="103" stroke="black" stroke-width="2"/>
<g clip-path="url(#clip0_1003_184)">
<path d="M14.007 27.53C14.1803 27.296 14.319 27.0057 14.423 26.659C14.527 26.3123 14.579 25.892 14.579 25.398C14.579 24.9907 14.5313 24.5963 14.436 24.215C14.3493 23.8337 14.2063 23.4957 14.007 23.201C13.8077 22.8977 13.5477 22.6593 13.227 22.486C12.9063 22.304 12.5163 22.213 12.057 22.213C11.5977 22.213 11.2077 22.304 10.887 22.486C10.5663 22.6593 10.3063 22.8977 10.107 23.201C9.90767 23.4957 9.76033 23.8337 9.665 24.215C9.57833 24.5963 9.535 24.9907 9.535 25.398C9.535 25.788 9.57833 26.1693 9.665 26.542C9.76033 26.906 9.90767 27.2353 10.107 27.53C10.3063 27.8247 10.5663 28.063 10.887 28.245C11.2077 28.4183 11.5977 28.505 12.057 28.505C12.2737 28.505 12.4383 28.4963 12.551 28.479C12.6637 28.4617 12.772 28.427 12.876 28.375L12.005 27.582L12.954 26.568L14.007 27.53ZM14.306 29.675C13.6907 30.0303 12.941 30.208 12.057 30.208C11.3463 30.208 10.705 30.0867 10.133 29.844C9.56967 29.5927 9.093 29.2503 8.703 28.817C8.313 28.3837 8.014 27.8767 7.806 27.296C7.598 26.7067 7.494 26.074 7.494 25.398C7.494 24.7047 7.598 24.0633 7.806 23.474C8.014 22.876 8.313 22.356 8.703 21.914C9.093 21.472 9.56967 21.1253 10.133 20.874C10.705 20.6227 11.3463 20.497 12.057 20.497C12.7763 20.497 13.4177 20.6227 13.981 20.874C14.5443 21.1253 15.021 21.472 15.411 21.914C15.801 22.356 16.1 22.876 16.308 23.474C16.516 24.0633 16.62 24.7047 16.62 25.398C16.62 26.074 16.516 26.7023 16.308 27.283C16.1 27.8637 15.801 28.375 15.411 28.817L16.568 29.87L15.619 30.858L14.306 29.675ZM24.1252 30V23.279H22.2792V26.802C22.2792 27.4867 22.1665 27.9807 21.9412 28.284C21.7158 28.5787 21.3518 28.726 20.8492 28.726C20.4072 28.726 20.0995 28.5917 19.9262 28.323C19.7528 28.0457 19.6662 27.6297 19.6662 27.075V23.279H17.8202V27.413C17.8202 27.829 17.8548 28.2103 17.9242 28.557C18.0022 28.895 18.1322 29.1853 18.3142 29.428C18.4962 29.662 18.7432 29.844 19.0552 29.974C19.3758 30.104 19.7832 30.169 20.2772 30.169C20.6672 30.169 21.0485 30.0823 21.4212 29.909C21.7938 29.7357 22.0972 29.454 22.3312 29.064H22.3702V30H24.1252ZM30.0502 25.918H27.0472C27.0559 25.788 27.0819 25.6407 27.1252 25.476C27.1772 25.3113 27.2596 25.1553 27.3722 25.008C27.4936 24.8607 27.6496 24.7393 27.8402 24.644C28.0396 24.54 28.2866 24.488 28.5812 24.488C29.0319 24.488 29.3656 24.6093 29.5822 24.852C29.8076 25.0947 29.9636 25.45 30.0502 25.918ZM27.0472 27.088H31.8962C31.9309 26.568 31.8876 26.0697 31.7662 25.593C31.6449 25.1163 31.4456 24.6917 31.1682 24.319C30.8996 23.9463 30.5529 23.6517 30.1282 23.435C29.7036 23.2097 29.2052 23.097 28.6332 23.097C28.1219 23.097 27.6539 23.188 27.2292 23.37C26.8132 23.552 26.4536 23.8033 26.1502 24.124C25.8469 24.436 25.6129 24.8087 25.4482 25.242C25.2836 25.6753 25.2012 26.1433 25.2012 26.646C25.2012 27.166 25.2792 27.6427 25.4352 28.076C25.5999 28.5093 25.8296 28.882 26.1242 29.194C26.4189 29.506 26.7786 29.7487 27.2032 29.922C27.6279 30.0867 28.1046 30.169 28.6332 30.169C29.3959 30.169 30.0459 29.9957 30.5832 29.649C31.1206 29.3023 31.5192 28.726 31.7792 27.92H30.1542C30.0936 28.128 29.9289 28.3273 29.6602 28.518C29.3916 28.7 29.0709 28.791 28.6982 28.791C28.1782 28.791 27.7796 28.6567 27.5022 28.388C27.2249 28.1193 27.0732 27.686 27.0472 27.088ZM34.4211 27.816H32.6661C32.6834 28.2667 32.7831 28.6437 32.9651 28.947C33.1557 29.2417 33.3941 29.48 33.6801 29.662C33.9747 29.844 34.3084 29.974 34.6811 30.052C35.0537 30.13 35.4351 30.169 35.8251 30.169C36.2064 30.169 36.5791 30.13 36.9431 30.052C37.3157 29.9827 37.6451 29.857 37.9311 29.675C38.2171 29.493 38.4467 29.2547 38.6201 28.96C38.8021 28.6567 38.8931 28.284 38.8931 27.842C38.8931 27.53 38.8324 27.27 38.7111 27.062C38.5897 26.8453 38.4294 26.6677 38.2301 26.529C38.0307 26.3817 37.8011 26.2647 37.5411 26.178C37.2897 26.0913 37.0297 26.0177 36.7611 25.957C36.5011 25.8963 36.2454 25.84 35.9941 25.788C35.7427 25.736 35.5174 25.6797 35.3181 25.619C35.1274 25.5497 34.9714 25.463 34.8501 25.359C34.7287 25.255 34.6681 25.1207 34.6681 24.956C34.6681 24.8173 34.7027 24.709 34.7721 24.631C34.8414 24.5443 34.9237 24.4793 35.0191 24.436C35.1231 24.3927 35.2357 24.3667 35.3571 24.358C35.4784 24.3407 35.5911 24.332 35.6951 24.332C36.0244 24.332 36.3104 24.397 36.5531 24.527C36.7957 24.6483 36.9301 24.8867 36.9561 25.242H38.7111C38.6764 24.826 38.5681 24.4837 38.3861 24.215C38.2127 23.9377 37.9917 23.7167 37.7231 23.552C37.4544 23.3873 37.1467 23.2703 36.8001 23.201C36.4621 23.1317 36.1111 23.097 35.7471 23.097C35.3831 23.097 35.0277 23.1317 34.6811 23.201C34.3344 23.2617 34.0224 23.3743 33.7451 23.539C33.4677 23.695 33.2424 23.9117 33.0691 24.189C32.9044 24.4663 32.8221 24.8217 32.8221 25.255C32.8221 25.5497 32.8827 25.801 33.0041 26.009C33.1254 26.2083 33.2857 26.3773 33.4851 26.516C33.6844 26.646 33.9097 26.7543 34.1611 26.841C34.4211 26.919 34.6854 26.9883 34.9541 27.049C35.6127 27.1877 36.1241 27.3263 36.4881 27.465C36.8607 27.6037 37.0471 27.8117 37.0471 28.089C37.0471 28.2537 37.0081 28.3923 36.9301 28.505C36.8521 28.609 36.7524 28.6957 36.6311 28.765C36.5184 28.8257 36.3884 28.8733 36.2411 28.908C36.1024 28.934 35.9681 28.947 35.8381 28.947C35.6561 28.947 35.4784 28.9253 35.3051 28.882C35.1404 28.8387 34.9931 28.7737 34.8631 28.687C34.7331 28.5917 34.6247 28.4747 34.5381 28.336C34.4601 28.1887 34.4211 28.0153 34.4211 27.816ZM42.3135 23.279V21.264H40.4675V23.279H39.3495V24.514H40.4675V28.479C40.4675 28.817 40.5238 29.09 40.6365 29.298C40.7492 29.506 40.9008 29.6663 41.0915 29.779C41.2908 29.8917 41.5162 29.9653 41.7675 30C42.0275 30.0433 42.3005 30.065 42.5865 30.065C42.7685 30.065 42.9548 30.0607 43.1455 30.052C43.3362 30.0433 43.5095 30.026 43.6655 30V28.57C43.5788 28.5873 43.4878 28.6003 43.3925 28.609C43.2972 28.6177 43.1975 28.622 43.0935 28.622C42.7815 28.622 42.5735 28.57 42.4695 28.466C42.3655 28.362 42.3135 28.154 42.3135 27.842V24.514H43.6655V23.279H42.3135ZM46.4418 22.239V20.718H44.5958V22.239H46.4418ZM44.5958 23.279V30H46.4418V23.279H44.5958ZM49.5334 26.646C49.5334 26.3773 49.5594 26.113 49.6114 25.853C49.6634 25.593 49.75 25.3633 49.8714 25.164C50.0014 24.9647 50.1704 24.8043 50.3784 24.683C50.5864 24.553 50.8464 24.488 51.1584 24.488C51.4704 24.488 51.7304 24.553 51.9384 24.683C52.155 24.8043 52.324 24.9647 52.4454 25.164C52.5754 25.3633 52.6664 25.593 52.7184 25.853C52.7704 26.113 52.7964 26.3773 52.7964 26.646C52.7964 26.9147 52.7704 27.179 52.7184 27.439C52.6664 27.6903 52.5754 27.92 52.4454 28.128C52.324 28.3273 52.155 28.4877 51.9384 28.609C51.7304 28.7303 51.4704 28.791 51.1584 28.791C50.8464 28.791 50.5864 28.7303 50.3784 28.609C50.1704 28.4877 50.0014 28.3273 49.8714 28.128C49.75 27.92 49.6634 27.6903 49.6114 27.439C49.5594 27.179 49.5334 26.9147 49.5334 26.646ZM47.6874 26.646C47.6874 27.1833 47.7697 27.6687 47.9344 28.102C48.099 28.5353 48.333 28.908 48.6364 29.22C48.9397 29.5233 49.3037 29.7573 49.7284 29.922C50.153 30.0867 50.6297 30.169 51.1584 30.169C51.687 30.169 52.1637 30.0867 52.5884 29.922C53.0217 29.7573 53.39 29.5233 53.6934 29.22C53.9967 28.908 54.2307 28.5353 54.3954 28.102C54.56 27.6687 54.6424 27.1833 54.6424 26.646C54.6424 26.1087 54.56 25.6233 54.3954 25.19C54.2307 24.748 53.9967 24.3753 53.6934 24.072C53.39 23.76 53.0217 23.5217 52.5884 23.357C52.1637 23.1837 51.687 23.097 51.1584 23.097C50.6297 23.097 50.153 23.1837 49.7284 23.357C49.3037 23.5217 48.9397 23.76 48.6364 24.072C48.333 24.3753 48.099 24.748 47.9344 25.19C47.7697 25.6233 47.6874 26.1087 47.6874 26.646ZM55.8426 23.279V30H57.6886V26.477C57.6886 25.7923 57.8013 25.3027 58.0266 25.008C58.252 24.7047 58.616 24.553 59.1186 24.553C59.5606 24.553 59.8683 24.6917 60.0416 24.969C60.215 25.2377 60.3016 25.6493 60.3016 26.204V30H62.1476V25.866C62.1476 25.45 62.1086 25.073 62.0306 24.735C61.9613 24.3883 61.8356 24.098 61.6536 23.864C61.4716 23.6213 61.2203 23.435 60.8996 23.305C60.5876 23.1663 60.1846 23.097 59.6906 23.097C59.3006 23.097 58.9193 23.188 58.5466 23.37C58.174 23.5433 57.8706 23.825 57.6366 24.215H57.5976V23.279H55.8426ZM7.702 36.718V46H9.548V42.477C9.548 41.7923 9.66067 41.3027 9.886 41.008C10.1113 40.7047 10.4753 40.553 10.978 40.553C11.42 40.553 11.7277 40.6917 11.901 40.969C12.0743 41.2377 12.161 41.6493 12.161 42.204V46H14.007V41.866C14.007 41.45 13.968 41.073 13.89 40.735C13.8207 40.3883 13.695 40.098 13.513 39.864C13.331 39.6213 13.0797 39.435 12.759 39.305C12.447 39.1663 12.044 39.097 11.55 39.097C11.2033 39.097 10.848 39.188 10.484 39.37C10.12 39.5433 9.821 39.825 9.587 40.215H9.548V36.718H7.702ZM19.9321 41.918H16.9291C16.9377 41.788 16.9637 41.6407 17.0071 41.476C17.0591 41.3113 17.1414 41.1553 17.2541 41.008C17.3754 40.8607 17.5314 40.7393 17.7221 40.644C17.9214 40.54 18.1684 40.488 18.4631 40.488C18.9137 40.488 19.2474 40.6093 19.4641 40.852C19.6894 41.0947 19.8454 41.45 19.9321 41.918ZM16.9291 43.088H21.7781C21.8127 42.568 21.7694 42.0697 21.6481 41.593C21.5267 41.1163 21.3274 40.6917 21.0501 40.319C20.7814 39.9463 20.4347 39.6517 20.0101 39.435C19.5854 39.2097 19.0871 39.097 18.5151 39.097C18.0037 39.097 17.5357 39.188 17.1111 39.37C16.6951 39.552 16.3354 39.8033 16.0321 40.124C15.7287 40.436 15.4947 40.8087 15.3301 41.242C15.1654 41.6753 15.0831 42.1433 15.0831 42.646C15.0831 43.166 15.1611 43.6427 15.3171 44.076C15.4817 44.5093 15.7114 44.882 16.0061 45.194C16.3007 45.506 16.6604 45.7487 17.0851 45.922C17.5097 46.0867 17.9864 46.169 18.5151 46.169C19.2777 46.169 19.9277 45.9957 20.4651 45.649C21.0024 45.3023 21.4011 44.726 21.6611 43.92H20.0361C19.9754 44.128 19.8107 44.3273 19.5421 44.518C19.2734 44.7 18.9527 44.791 18.5801 44.791C18.0601 44.791 17.6614 44.6567 17.3841 44.388C17.1067 44.1193 16.9551 43.686 16.9291 43.088ZM22.7949 41.346C22.8209 40.9127 22.9292 40.553 23.1199 40.267C23.3106 39.981 23.5532 39.7513 23.8479 39.578C24.1426 39.4047 24.4719 39.2833 24.8359 39.214C25.2086 39.136 25.5812 39.097 25.9539 39.097C26.2919 39.097 26.6342 39.123 26.9809 39.175C27.3276 39.2183 27.6439 39.3093 27.9299 39.448C28.2159 39.5867 28.4499 39.7817 28.6319 40.033C28.8139 40.2757 28.9049 40.6007 28.9049 41.008V44.505C28.9049 44.8083 28.9222 45.0987 28.9569 45.376C28.9916 45.6533 29.0522 45.8613 29.1389 46H27.2669C27.2322 45.896 27.2019 45.792 27.1759 45.688C27.1586 45.5753 27.1456 45.4627 27.1369 45.35C26.8422 45.6533 26.4956 45.8657 26.0969 45.987C25.6982 46.1083 25.2909 46.169 24.8749 46.169C24.5542 46.169 24.2552 46.13 23.9779 46.052C23.7006 45.974 23.4579 45.8527 23.2499 45.688C23.0419 45.5233 22.8772 45.3153 22.7559 45.064C22.6432 44.8127 22.5869 44.5137 22.5869 44.167C22.5869 43.7857 22.6519 43.4737 22.7819 43.231C22.9206 42.9797 23.0939 42.7803 23.3019 42.633C23.5186 42.4857 23.7612 42.3773 24.0299 42.308C24.3072 42.23 24.5846 42.1693 24.8619 42.126C25.1392 42.0827 25.4122 42.048 25.6809 42.022C25.9496 41.996 26.1879 41.957 26.3959 41.905C26.6039 41.853 26.7686 41.7793 26.8899 41.684C27.0112 41.58 27.0676 41.4327 27.0589 41.242C27.0589 41.0427 27.0242 40.8867 26.9549 40.774C26.8942 40.6527 26.8076 40.5617 26.6949 40.501C26.5909 40.4317 26.4652 40.3883 26.3179 40.371C26.1792 40.345 26.0276 40.332 25.8629 40.332C25.4989 40.332 25.2129 40.41 25.0049 40.566C24.7969 40.722 24.6756 40.982 24.6409 41.346H22.7949ZM27.0589 42.711C26.9809 42.7803 26.8812 42.8367 26.7599 42.88C26.6472 42.9147 26.5216 42.945 26.3829 42.971C26.2529 42.997 26.1142 43.0187 25.9669 43.036C25.8196 43.0533 25.6722 43.075 25.5249 43.101C25.3862 43.127 25.2476 43.1617 25.1089 43.205C24.9789 43.2483 24.8619 43.309 24.7579 43.387C24.6626 43.4563 24.5846 43.5473 24.5239 43.66C24.4632 43.7727 24.4329 43.9157 24.4329 44.089C24.4329 44.2537 24.4632 44.3923 24.5239 44.505C24.5846 44.6177 24.6669 44.7087 24.7709 44.778C24.8749 44.8387 24.9962 44.882 25.1349 44.908C25.2736 44.934 25.4166 44.947 25.5639 44.947C25.9279 44.947 26.2096 44.8863 26.4089 44.765C26.6082 44.6437 26.7556 44.5007 26.8509 44.336C26.9462 44.1627 27.0026 43.9893 27.0199 43.816C27.0459 43.6427 27.0589 43.504 27.0589 43.4V42.711ZM35.1087 42.62C35.1087 42.8973 35.0827 43.166 35.0307 43.426C34.9787 43.686 34.8921 43.92 34.7707 44.128C34.6494 44.3273 34.4847 44.4877 34.2767 44.609C34.0774 44.7303 33.8261 44.791 33.5227 44.791C33.2367 44.791 32.9897 44.7303 32.7817 44.609C32.5824 44.479 32.4134 44.3143 32.2747 44.115C32.1447 43.907 32.0494 43.673 31.9887 43.413C31.9281 43.153 31.8977 42.893 31.8977 42.633C31.8977 42.3557 31.9237 42.0913 31.9757 41.84C32.0364 41.58 32.1274 41.3503 32.2487 41.151C32.3787 40.9517 32.5477 40.7913 32.7557 40.67C32.9637 40.5487 33.2194 40.488 33.5227 40.488C33.8261 40.488 34.0774 40.5487 34.2767 40.67C34.4761 40.7913 34.6364 40.9517 34.7577 41.151C34.8877 41.3417 34.9787 41.567 35.0307 41.827C35.0827 42.0783 35.1087 42.3427 35.1087 42.62ZM35.1347 45.142V46H36.8897V36.718H35.0437V40.098H35.0177C34.8097 39.7687 34.5237 39.5217 34.1597 39.357C33.8044 39.1837 33.4274 39.097 33.0287 39.097C32.5347 39.097 32.1014 39.1967 31.7287 39.396C31.3561 39.5867 31.0441 39.8423 30.7927 40.163C30.5501 40.4837 30.3637 40.8563 30.2337 41.281C30.1124 41.697 30.0517 42.1303 30.0517 42.581C30.0517 43.049 30.1124 43.4997 30.2337 43.933C30.3637 44.3663 30.5501 44.752 30.7927 45.09C31.0441 45.4193 31.3604 45.6837 31.7417 45.883C32.1231 46.0737 32.5651 46.169 33.0677 46.169C33.5097 46.169 33.9041 46.091 34.2507 45.935C34.6061 45.7703 34.8921 45.506 35.1087 45.142H35.1347ZM40.183 38.239V36.718H38.337V38.239H40.183ZM38.337 39.279V46H40.183V39.279H38.337ZM41.6366 39.279V46H43.4826V42.477C43.4826 41.7923 43.5952 41.3027 43.8206 41.008C44.0459 40.7047 44.4099 40.553 44.9126 40.553C45.3546 40.553 45.6622 40.6917 45.8356 40.969C46.0089 41.2377 46.0956 41.6493 46.0956 42.204V46H47.9416V41.866C47.9416 41.45 47.9026 41.073 47.8246 40.735C47.7552 40.3883 47.6296 40.098 47.4476 39.864C47.2656 39.6213 47.0142 39.435 46.6936 39.305C46.3816 39.1663 45.9786 39.097 45.4846 39.097C45.0946 39.097 44.7132 39.188 44.3406 39.37C43.9679 39.5433 43.6646 39.825 43.4306 40.215H43.3916V39.279H41.6366ZM52.4756 44.414C52.1896 44.414 51.9513 44.3533 51.7606 44.232C51.57 44.1107 51.414 43.9547 51.2926 43.764C51.18 43.5733 51.0976 43.361 51.0456 43.127C51.0023 42.8843 50.9806 42.6417 50.9806 42.399C50.9806 42.1477 51.0066 41.9093 51.0586 41.684C51.1193 41.45 51.2103 41.2463 51.3316 41.073C51.4616 40.891 51.6176 40.748 51.7996 40.644C51.9903 40.54 52.2156 40.488 52.4756 40.488C52.779 40.488 53.0303 40.5443 53.2296 40.657C53.429 40.7697 53.5893 40.9213 53.7106 41.112C53.832 41.3027 53.9186 41.5237 53.9706 41.775C54.0226 42.0177 54.0486 42.2777 54.0486 42.555C54.0486 42.7977 54.014 43.0317 53.9446 43.257C53.884 43.4737 53.7886 43.6687 53.6586 43.842C53.5286 44.0153 53.364 44.154 53.1646 44.258C52.9653 44.362 52.7356 44.414 52.4756 44.414ZM55.8036 45.571V39.279H54.0486V40.176H54.0226C53.7973 39.786 53.5156 39.5087 53.1776 39.344C52.8483 39.1793 52.4626 39.097 52.0206 39.097C51.5526 39.097 51.1366 39.188 50.7726 39.37C50.4173 39.552 50.1183 39.799 49.8756 40.111C49.633 40.4143 49.4466 40.7697 49.3166 41.177C49.1953 41.5757 49.1346 41.9917 49.1346 42.425C49.1346 42.8843 49.1866 43.322 49.2906 43.738C49.4033 44.1453 49.5766 44.505 49.8106 44.817C50.0446 45.1203 50.3436 45.363 50.7076 45.545C51.0716 45.7183 51.505 45.805 52.0076 45.805C52.415 45.805 52.8006 45.7227 53.1646 45.558C53.5373 45.3847 53.8233 45.1203 54.0226 44.765H54.0486V45.649C54.0573 46.1257 53.9403 46.52 53.6976 46.832C53.4636 47.144 53.0866 47.3 52.5666 47.3C52.2373 47.3 51.947 47.2307 51.6956 47.092C51.4443 46.962 51.2753 46.7237 51.1886 46.377H49.3556C49.3816 46.7583 49.4856 47.0833 49.6676 47.352C49.8583 47.6293 50.0923 47.8547 50.3696 48.028C50.6556 48.2013 50.9676 48.327 51.3056 48.405C51.6523 48.4917 51.9903 48.535 52.3196 48.535C53.091 48.535 53.7063 48.431 54.1656 48.223C54.625 48.015 54.976 47.7593 55.2186 47.456C55.4613 47.1613 55.6173 46.8407 55.6866 46.494C55.7646 46.1473 55.8036 45.8397 55.8036 45.571Z" fill="#231F20"/>
</g>
<circle cx="12" cy="59" r="4.5" fill="white" stroke="#0B0C0C"/>
<rect x="22" y="59" width="25" height="1" fill="#0B0C0C"/>
<circle cx="12" cy="72" r="4.5" fill="white" stroke="#0B0C0C"/>
<rect x="22" y="72" width="25" height="1" fill="#0B0C0C"/>
<circle cx="12" cy="85" r="4.5" fill="white" stroke="#0B0C0C"/>
<rect x="22" y="85" width="25" height="1" fill="#0B0C0C"/>
<g filter="url(#filter0_i_1003_184)">
<rect x="7" y="95" width="26" height="10" fill="#00823B"/>
</g>
<defs>
<filter id="filter0_i_1003_184" x="7" y="95" width="26" height="10" filterUnits="userSpaceOnUse" color-interpolation-filters="sRGB">
<feFlood flood-opacity="0" result="BackgroundImageFix"/>
<feBlend mode="normal" in="SourceGraphic" in2="BackgroundImageFix" result="shape"/>
<feColorMatrix in="SourceAlpha" type="matrix" values="0 0 0 0 0 0 0 0 0 0 0 0 0 0 0 0 0 0 127 0" result="hardAlpha"/>
<feOffset dy="-1"/>
<feComposite in2="hardAlpha" operator="arithmetic" k2="-1" k3="1"/>
<feColorMatrix type="matrix" values="0 0 0 0 0 0 0 0 0 0.392157 0 0 0 0 0.207843 0 0 0 1 0"/>
<feBlend mode="normal" in2="shape" result="effect1_innerShadow_1003_184"/>
</filter>
<clipPath id="clip0_1003_184">
<rect width="80" height="32" fill="white" transform="translate(7 17)"/>
</clipPath>
</defs>
</svg>
