<svg width="110" height="81" viewBox="0 0 110 81" fill="none" xmlns="http://www.w3.org/2000/svg">
<rect x="1" y="1" width="108" height="79" stroke="black" stroke-width="2"/>
<rect width="110" height="81" fill="white"/>
<rect width="110" height="10" fill="#1D70B8"/>
<rect x="1" y="11" width="108" height="69" stroke="black" stroke-width="2"/>
<rect width="106" height="16" transform="translate(2 12)" fill="#DDE6EF"/>
<path d="M19.1444 14.8906V22H18.1971L14.618 16.5166V22H13.6757V14.8906H14.618L18.2118 20.3887V14.8906H19.1444ZM23.8229 21.0967V18.377C23.8229 18.1686 23.7805 17.988 23.6959 17.835C23.6145 17.6787 23.4908 17.5583 23.3248 17.4736C23.1588 17.389 22.9537 17.3467 22.7096 17.3467C22.4817 17.3467 22.2815 17.3857 22.109 17.4639C21.9397 17.542 21.8062 17.6445 21.7086 17.7715C21.6142 17.8984 21.567 18.0352 21.567 18.1816H20.6637C20.6637 17.9928 20.7125 17.8057 20.8102 17.6201C20.9078 17.4346 21.0478 17.2669 21.2301 17.1172C21.4156 16.9642 21.637 16.8438 21.8941 16.7559C22.1546 16.6647 22.4443 16.6191 22.7633 16.6191C23.1474 16.6191 23.4859 16.6842 23.7789 16.8145C24.0751 16.9447 24.3062 17.1416 24.4723 17.4053C24.6415 17.6657 24.7262 17.9928 24.7262 18.3867V20.8477C24.7262 21.0234 24.7408 21.2106 24.7701 21.4092C24.8027 21.6077 24.8499 21.7786 24.9117 21.9219V22H23.9693C23.9238 21.8958 23.888 21.7575 23.8619 21.585C23.8359 21.4092 23.8229 21.2464 23.8229 21.0967ZM23.9791 18.7969L23.9889 19.4316H23.0758C22.8186 19.4316 22.5891 19.4528 22.3873 19.4951C22.1855 19.5342 22.0162 19.5944 21.8795 19.6758C21.7428 19.7572 21.6386 19.8597 21.567 19.9834C21.4954 20.1038 21.4596 20.2454 21.4596 20.4082C21.4596 20.5742 21.497 20.7256 21.5719 20.8623C21.6467 20.999 21.759 21.1081 21.9088 21.1895C22.0618 21.2676 22.249 21.3066 22.4703 21.3066C22.747 21.3066 22.9911 21.248 23.2027 21.1309C23.4143 21.0137 23.582 20.8704 23.7057 20.7012C23.8326 20.5319 23.901 20.3675 23.9107 20.208L24.2965 20.6426C24.2737 20.7793 24.2118 20.9307 24.1109 21.0967C24.01 21.2627 23.8749 21.4222 23.7057 21.5752C23.5396 21.7249 23.3411 21.8503 23.11 21.9512C22.8821 22.0488 22.6249 22.0977 22.3385 22.0977C21.9804 22.0977 21.6663 22.0277 21.3961 21.8877C21.1292 21.7477 20.9208 21.5605 20.7711 21.3262C20.6246 21.0885 20.5514 20.8232 20.5514 20.5303C20.5514 20.2471 20.6067 19.998 20.7174 19.7832C20.8281 19.5651 20.9876 19.3844 21.1959 19.2412C21.4042 19.0947 21.6549 18.984 21.9479 18.9092C22.2408 18.8343 22.568 18.7969 22.9293 18.7969H23.9791ZM27.7054 21.1846L29.1507 16.7168H30.0736L28.1741 22H27.5687L27.7054 21.1846ZM26.4993 16.7168L27.9886 21.209L28.0911 22H27.4857L25.5716 16.7168H26.4993ZM33.8438 14.8516V22H32.9405V15.9795L31.1192 16.6436V15.8281L33.7022 14.8516H33.8438ZM49.7646 14.8906V22H48.8173L45.2382 16.5166V22H44.2958V14.8906H45.2382L48.832 20.3887V14.8906H49.7646ZM54.443 21.0967V18.377C54.443 18.1686 54.4007 17.988 54.3161 17.835C54.2347 17.6787 54.111 17.5583 53.945 17.4736C53.7789 17.389 53.5739 17.3467 53.3297 17.3467C53.1019 17.3467 52.9017 17.3857 52.7291 17.4639C52.5599 17.542 52.4264 17.6445 52.3288 17.7715C52.2343 17.8984 52.1871 18.0352 52.1871 18.1816H51.2838C51.2838 17.9928 51.3327 17.8057 51.4303 17.6201C51.528 17.4346 51.6679 17.2669 51.8502 17.1172C52.0358 16.9642 52.2571 16.8438 52.5143 16.7559C52.7747 16.6647 53.0644 16.6191 53.3834 16.6191C53.7676 16.6191 54.1061 16.6842 54.3991 16.8145C54.6953 16.9447 54.9264 17.1416 55.0924 17.4053C55.2617 17.6657 55.3463 17.9928 55.3463 18.3867V20.8477C55.3463 21.0234 55.361 21.2106 55.3903 21.4092C55.4228 21.6077 55.47 21.7786 55.5319 21.9219V22H54.5895C54.5439 21.8958 54.5081 21.7575 54.4821 21.585C54.456 21.4092 54.443 21.2464 54.443 21.0967ZM54.5993 18.7969L54.609 19.4316H53.6959C53.4388 19.4316 53.2093 19.4528 53.0075 19.4951C52.8056 19.5342 52.6364 19.5944 52.4996 19.6758C52.3629 19.7572 52.2588 19.8597 52.1871 19.9834C52.1155 20.1038 52.0797 20.2454 52.0797 20.4082C52.0797 20.5742 52.1172 20.7256 52.192 20.8623C52.2669 20.999 52.3792 21.1081 52.5289 21.1895C52.6819 21.2676 52.8691 21.3066 53.0905 21.3066C53.3672 21.3066 53.6113 21.248 53.8229 21.1309C54.0345 21.0137 54.2021 20.8704 54.3258 20.7012C54.4528 20.5319 54.5211 20.3675 54.5309 20.208L54.9166 20.6426C54.8939 20.7793 54.832 20.9307 54.7311 21.0967C54.6302 21.2627 54.4951 21.4222 54.3258 21.5752C54.1598 21.7249 53.9612 21.8503 53.7301 21.9512C53.5023 22.0488 53.2451 22.0977 52.9586 22.0977C52.6006 22.0977 52.2864 22.0277 52.0163 21.8877C51.7493 21.7477 51.541 21.5605 51.3913 21.3262C51.2448 21.0885 51.1715 20.8232 51.1715 20.5303C51.1715 20.2471 51.2269 19.998 51.3375 19.7832C51.4482 19.5651 51.6077 19.3844 51.8161 19.2412C52.0244 19.0947 52.275 18.984 52.568 18.9092C52.861 18.8343 53.1881 18.7969 53.5495 18.7969H54.5993ZM58.3255 21.1846L59.7709 16.7168H60.6937L58.7943 22H58.1888L58.3255 21.1846ZM57.1195 16.7168L58.6087 21.209L58.7113 22H58.1058L56.1918 16.7168H57.1195ZM66.1534 21.2578V22H61.5001V21.3506L63.8292 18.7578C64.1156 18.4388 64.337 18.1686 64.4932 17.9473C64.6527 17.7227 64.7634 17.5225 64.8253 17.3467C64.8904 17.1676 64.9229 16.9854 64.9229 16.7998C64.9229 16.5654 64.8741 16.3538 64.7764 16.165C64.682 15.973 64.5421 15.82 64.3565 15.7061C64.171 15.5921 63.9464 15.5352 63.6827 15.5352C63.3669 15.5352 63.1033 15.597 62.8917 15.7207C62.6833 15.8411 62.5271 16.0104 62.4229 16.2285C62.3188 16.4466 62.2667 16.6973 62.2667 16.9805H61.3634C61.3634 16.5801 61.4512 16.2139 61.627 15.8818C61.8028 15.5498 62.0632 15.2861 62.4083 15.0908C62.7533 14.8923 63.1781 14.793 63.6827 14.793C64.1319 14.793 64.516 14.8727 64.835 15.0322C65.154 15.1885 65.3982 15.4098 65.5675 15.6963C65.74 15.9795 65.8262 16.3115 65.8262 16.6924C65.8262 16.9007 65.7904 17.1123 65.7188 17.3271C65.6505 17.5387 65.5544 17.7503 65.4307 17.9619C65.3103 18.1735 65.1687 18.3818 65.0059 18.5869C64.8464 18.792 64.6755 18.9938 64.4932 19.1924L62.5889 21.2578H66.1534ZM80.3847 14.8906V22H79.4375L75.8584 16.5166V22H74.916V14.8906H75.8584L79.4521 20.3887V14.8906H80.3847ZM85.0632 21.0967V18.377C85.0632 18.1686 85.0208 17.988 84.9362 17.835C84.8548 17.6787 84.7311 17.5583 84.5651 17.4736C84.3991 17.389 84.194 17.3467 83.9499 17.3467C83.722 17.3467 83.5218 17.3857 83.3493 17.4639C83.18 17.542 83.0466 17.6445 82.9489 17.7715C82.8545 17.8984 82.8073 18.0352 82.8073 18.1816H81.904C81.904 17.9928 81.9528 17.8057 82.0505 17.6201C82.1481 17.4346 82.2881 17.2669 82.4704 17.1172C82.6559 16.9642 82.8773 16.8438 83.1344 16.7559C83.3949 16.6647 83.6846 16.6191 84.0036 16.6191C84.3877 16.6191 84.7262 16.6842 85.0192 16.8145C85.3154 16.9447 85.5466 17.1416 85.7126 17.4053C85.8818 17.6657 85.9665 17.9928 85.9665 18.3867V20.8477C85.9665 21.0234 85.9811 21.2106 86.0104 21.4092C86.043 21.6077 86.0902 21.7786 86.152 21.9219V22H85.2096C85.1641 21.8958 85.1283 21.7575 85.1022 21.585C85.0762 21.4092 85.0632 21.2464 85.0632 21.0967ZM85.2194 18.7969L85.2292 19.4316H84.3161C84.0589 19.4316 83.8294 19.4528 83.6276 19.4951C83.4258 19.5342 83.2565 19.5944 83.1198 19.6758C82.9831 19.7572 82.8789 19.8597 82.8073 19.9834C82.7357 20.1038 82.6999 20.2454 82.6999 20.4082C82.6999 20.5742 82.7373 20.7256 82.8122 20.8623C82.887 20.999 82.9994 21.1081 83.1491 21.1895C83.3021 21.2676 83.4893 21.3066 83.7106 21.3066C83.9873 21.3066 84.2315 21.248 84.443 21.1309C84.6546 21.0137 84.8223 20.8704 84.946 20.7012C85.0729 20.5319 85.1413 20.3675 85.151 20.208L85.5368 20.6426C85.514 20.7793 85.4522 20.9307 85.3512 21.0967C85.2503 21.2627 85.1152 21.4222 84.946 21.5752C84.78 21.7249 84.5814 21.8503 84.3503 21.9512C84.1224 22.0488 83.8652 22.0977 83.5788 22.0977C83.2207 22.0977 82.9066 22.0277 82.6364 21.8877C82.3695 21.7477 82.1611 21.5605 82.0114 21.3262C81.8649 21.0885 81.7917 20.8232 81.7917 20.5303C81.7917 20.2471 81.847 19.998 81.9577 19.7832C82.0684 19.5651 82.2279 19.3844 82.4362 19.2412C82.6445 19.0947 82.8952 18.984 83.1882 18.9092C83.4811 18.8343 83.8083 18.7969 84.1696 18.7969H85.2194ZM88.9457 21.1846L90.391 16.7168H91.3139L89.4145 22H88.809L88.9457 21.1846ZM87.7397 16.7168L89.2289 21.209L89.3315 22H88.726L86.8119 16.7168H87.7397ZM93.4337 18.001H94.0782C94.394 18.001 94.6544 17.9489 94.8595 17.8447C95.0678 17.7373 95.2225 17.5924 95.3234 17.4102C95.4275 17.2246 95.4796 17.0163 95.4796 16.7852C95.4796 16.5117 95.434 16.2822 95.3429 16.0967C95.2517 15.9111 95.115 15.7712 94.9327 15.6768C94.7504 15.5824 94.5193 15.5352 94.2394 15.5352C93.9855 15.5352 93.7609 15.5856 93.5656 15.6865C93.3735 15.7842 93.2221 15.9242 93.1115 16.1064C93.004 16.2887 92.9503 16.5036 92.9503 16.751H92.047C92.047 16.3896 92.1381 16.0609 92.3204 15.7646C92.5027 15.4684 92.7583 15.2324 93.087 15.0566C93.4191 14.8809 93.8032 14.793 94.2394 14.793C94.6691 14.793 95.045 14.8695 95.3673 15.0225C95.6896 15.1722 95.9402 15.3968 96.1193 15.6963C96.2983 15.9925 96.3878 16.362 96.3878 16.8047C96.3878 16.9837 96.3455 17.1758 96.2609 17.3809C96.1795 17.5827 96.0509 17.7715 95.8751 17.9473C95.7026 18.123 95.478 18.2679 95.2013 18.3818C94.9246 18.4925 94.5926 18.5479 94.2052 18.5479H93.4337V18.001ZM93.4337 18.7432V18.2012H94.2052C94.6577 18.2012 95.032 18.2549 95.3282 18.3623C95.6245 18.4697 95.8572 18.613 96.0265 18.792C96.199 18.971 96.3195 19.168 96.3878 19.3828C96.4594 19.5944 96.4952 19.806 96.4952 20.0176C96.4952 20.3496 96.4383 20.6442 96.3243 20.9014C96.2137 21.1585 96.0558 21.3766 95.8507 21.5557C95.6489 21.7347 95.4113 21.8698 95.1378 21.9609C94.8644 22.0521 94.5665 22.0977 94.2443 22.0977C93.935 22.0977 93.6437 22.0537 93.3702 21.9658C93.1001 21.8779 92.8608 21.751 92.6525 21.585C92.4441 21.4157 92.2814 21.209 92.1642 20.9648C92.047 20.7174 91.9884 20.4359 91.9884 20.1201H92.8917C92.8917 20.3675 92.9454 20.584 93.0529 20.7695C93.1635 20.9551 93.3198 21.0999 93.5216 21.2041C93.7267 21.305 93.9676 21.3555 94.2443 21.3555C94.521 21.3555 94.7586 21.3083 94.9572 21.2139C95.159 21.1162 95.3136 20.9697 95.421 20.7744C95.5317 20.5791 95.587 20.3333 95.587 20.0371C95.587 19.7409 95.5252 19.4984 95.4015 19.3096C95.2778 19.1175 95.102 18.9759 94.8741 18.8848C94.6495 18.7904 94.3842 18.7432 94.0782 18.7432H93.4337Z" fill="#005EA5"/>
<rect x="40" y="25" width="30" height="2" fill="#005EA5"/>
</svg>
