<svg width="110" height="81" viewBox="0 0 110 81" fill="none" xmlns="http://www.w3.org/2000/svg">
<rect width="110" height="81" fill="white"/>
<rect width="110" height="10" fill="#1D70B8"/>
<rect x="1" y="11" width="108" height="69" stroke="black" stroke-width="2"/>
<rect width="70" height="28" transform="translate(7 17)" fill="#00823B"/>
<path d="M17.4012 27.24L18.3312 24.62H18.3512L19.2512 27.24H17.4012ZM17.5512 22.86L14.8512 30H16.4312L16.9912 28.41H19.6612L20.2012 30H21.8312L19.1612 22.86H17.5512ZM24.9369 29.07C24.7102 29.07 24.5169 29.0233 24.3569 28.93C24.1969 28.8367 24.0669 28.7167 23.9669 28.57C23.8735 28.4167 23.8035 28.24 23.7569 28.04C23.7169 27.84 23.6969 27.6367 23.6969 27.43C23.6969 27.2167 23.7169 27.01 23.7569 26.81C23.7969 26.61 23.8635 26.4333 23.9569 26.28C24.0569 26.1267 24.1835 26.0033 24.3369 25.91C24.4969 25.81 24.6935 25.76 24.9269 25.76C25.1535 25.76 25.3435 25.81 25.4969 25.91C25.6569 26.0033 25.7869 26.13 25.8869 26.29C25.9869 26.4433 26.0569 26.62 26.0969 26.82C26.1435 27.02 26.1669 27.2233 26.1669 27.43C26.1669 27.6367 26.1469 27.84 26.1069 28.04C26.0669 28.24 25.9969 28.4167 25.8969 28.57C25.8035 28.7167 25.6769 28.8367 25.5169 28.93C25.3635 29.0233 25.1702 29.07 24.9369 29.07ZM22.3269 24.83V31.81H23.7469V29.36H23.7669C23.9402 29.6133 24.1602 29.8067 24.4269 29.94C24.7002 30.0667 24.9969 30.13 25.3169 30.13C25.6969 30.13 26.0269 30.0567 26.3069 29.91C26.5935 29.7633 26.8302 29.5667 27.0169 29.32C27.2102 29.0733 27.3535 28.79 27.4469 28.47C27.5402 28.15 27.5869 27.8167 27.5869 27.47C27.5869 27.1033 27.5402 26.7533 27.4469 26.42C27.3535 26.08 27.2102 25.7833 27.0169 25.53C26.8235 25.2767 26.5802 25.0733 26.2869 24.92C25.9935 24.7667 25.6435 24.69 25.2369 24.69C24.9169 24.69 24.6235 24.7533 24.3569 24.88C24.0902 25.0067 23.8702 25.21 23.6969 25.49H23.6769V24.83H22.3269ZM31.0802 29.07C30.8535 29.07 30.6602 29.0233 30.5002 28.93C30.3402 28.8367 30.2102 28.7167 30.1102 28.57C30.0168 28.4167 29.9468 28.24 29.9002 28.04C29.8602 27.84 29.8402 27.6367 29.8402 27.43C29.8402 27.2167 29.8602 27.01 29.9002 26.81C29.9402 26.61 30.0068 26.4333 30.1002 26.28C30.2002 26.1267 30.3268 26.0033 30.4802 25.91C30.6402 25.81 30.8368 25.76 31.0702 25.76C31.2968 25.76 31.4868 25.81 31.6402 25.91C31.8002 26.0033 31.9302 26.13 32.0302 26.29C32.1302 26.4433 32.2002 26.62 32.2402 26.82C32.2868 27.02 32.3102 27.2233 32.3102 27.43C32.3102 27.6367 32.2902 27.84 32.2502 28.04C32.2102 28.24 32.1402 28.4167 32.0402 28.57C31.9468 28.7167 31.8202 28.8367 31.6602 28.93C31.5068 29.0233 31.3135 29.07 31.0802 29.07ZM28.4702 24.83V31.81H29.8902V29.36H29.9102C30.0835 29.6133 30.3035 29.8067 30.5702 29.94C30.8435 30.0667 31.1402 30.13 31.4602 30.13C31.8402 30.13 32.1702 30.0567 32.4502 29.91C32.7368 29.7633 32.9735 29.5667 33.1602 29.32C33.3535 29.0733 33.4968 28.79 33.5902 28.47C33.6835 28.15 33.7302 27.8167 33.7302 27.47C33.7302 27.1033 33.6835 26.7533 33.5902 26.42C33.4968 26.08 33.3535 25.7833 33.1602 25.53C32.9668 25.2767 32.7235 25.0733 32.4302 24.92C32.1368 24.7667 31.7868 24.69 31.3802 24.69C31.0602 24.69 30.7668 24.7533 30.5002 24.88C30.2335 25.0067 30.0135 25.21 29.8402 25.49H29.8202V24.83H28.4702ZM34.6534 22.86V30H36.0734V22.86H34.6534ZM38.6816 24.03V22.86H37.2616V24.03H38.6816ZM37.2616 24.83V30H38.6816V24.83H37.2616ZM43.3497 26.65H44.7397C44.7197 26.3167 44.6397 26.03 44.4997 25.79C44.3597 25.5433 44.1764 25.34 43.9497 25.18C43.7297 25.0133 43.4764 24.89 43.1897 24.81C42.9097 24.73 42.6164 24.69 42.3097 24.69C41.8897 24.69 41.5164 24.76 41.1897 24.9C40.863 25.04 40.5864 25.2367 40.3597 25.49C40.133 25.7367 39.9597 26.0333 39.8397 26.38C39.7264 26.72 39.6697 27.09 39.6697 27.49C39.6697 27.8767 39.733 28.2333 39.8597 28.56C39.9864 28.88 40.163 29.1567 40.3897 29.39C40.6164 29.6233 40.8897 29.8067 41.2097 29.94C41.5364 30.0667 41.893 30.13 42.2797 30.13C42.9664 30.13 43.5297 29.95 43.9697 29.59C44.4097 29.23 44.6764 28.7067 44.7697 28.02H43.3997C43.353 28.34 43.2364 28.5967 43.0497 28.79C42.8697 28.9767 42.6097 29.07 42.2697 29.07C42.0497 29.07 41.863 29.02 41.7097 28.92C41.5564 28.82 41.433 28.6933 41.3397 28.54C41.253 28.38 41.1897 28.2033 41.1497 28.01C41.1097 27.8167 41.0897 27.6267 41.0897 27.44C41.0897 27.2467 41.1097 27.0533 41.1497 26.86C41.1897 26.66 41.2564 26.48 41.3497 26.32C41.4497 26.1533 41.5764 26.02 41.7297 25.92C41.883 25.8133 42.073 25.76 42.2997 25.76C42.9064 25.76 43.2564 26.0567 43.3497 26.65ZM45.5419 26.42C45.5619 26.0867 45.6452 25.81 45.7919 25.59C45.9385 25.37 46.1252 25.1933 46.3519 25.06C46.5785 24.9267 46.8319 24.8333 47.1119 24.78C47.3985 24.72 47.6852 24.69 47.9719 24.69C48.2319 24.69 48.4952 24.71 48.7619 24.75C49.0285 24.7833 49.2719 24.8533 49.4919 24.96C49.7119 25.0667 49.8919 25.2167 50.0319 25.41C50.1719 25.5967 50.2419 25.8467 50.2419 26.16V28.85C50.2419 29.0833 50.2552 29.3067 50.2819 29.52C50.3085 29.7333 50.3552 29.8933 50.4219 30H48.9819C48.9552 29.92 48.9319 29.84 48.9119 29.76C48.8985 29.6733 48.8885 29.5867 48.8819 29.5C48.6552 29.7333 48.3885 29.8967 48.0819 29.99C47.7752 30.0833 47.4619 30.13 47.1419 30.13C46.8952 30.13 46.6652 30.1 46.4519 30.04C46.2385 29.98 46.0519 29.8867 45.8919 29.76C45.7319 29.6333 45.6052 29.4733 45.5119 29.28C45.4252 29.0867 45.3819 28.8567 45.3819 28.59C45.3819 28.2967 45.4319 28.0567 45.5319 27.87C45.6385 27.6767 45.7719 27.5233 45.9319 27.41C46.0985 27.2967 46.2852 27.2133 46.4919 27.16C46.7052 27.1 46.9185 27.0533 47.1319 27.02C47.3452 26.9867 47.5552 26.96 47.7619 26.94C47.9685 26.92 48.1519 26.89 48.3119 26.85C48.4719 26.81 48.5985 26.7533 48.6919 26.68C48.7852 26.6 48.8285 26.4867 48.8219 26.34C48.8219 26.1867 48.7952 26.0667 48.7419 25.98C48.6952 25.8867 48.6285 25.8167 48.5419 25.77C48.4619 25.7167 48.3652 25.6833 48.2519 25.67C48.1452 25.65 48.0285 25.64 47.9019 25.64C47.6219 25.64 47.4019 25.7 47.2419 25.82C47.0819 25.94 46.9885 26.14 46.9619 26.42H45.5419ZM48.8219 27.47C48.7619 27.5233 48.6852 27.5667 48.5919 27.6C48.5052 27.6267 48.4085 27.65 48.3019 27.67C48.2019 27.69 48.0952 27.7067 47.9819 27.72C47.8685 27.7333 47.7552 27.75 47.6419 27.77C47.5352 27.79 47.4285 27.8167 47.3219 27.85C47.2219 27.8833 47.1319 27.93 47.0519 27.99C46.9785 28.0433 46.9185 28.1133 46.8719 28.2C46.8252 28.2867 46.8019 28.3967 46.8019 28.53C46.8019 28.6567 46.8252 28.7633 46.8719 28.85C46.9185 28.9367 46.9819 29.0067 47.0619 29.06C47.1419 29.1067 47.2352 29.14 47.3419 29.16C47.4485 29.18 47.5585 29.19 47.6719 29.19C47.9519 29.19 48.1685 29.1433 48.3219 29.05C48.4752 28.9567 48.5885 28.8467 48.6619 28.72C48.7352 28.5867 48.7785 28.4533 48.7919 28.32C48.8119 28.1867 48.8219 28.08 48.8219 28V27.47ZM53.1741 24.83V23.28H51.7541V24.83H50.8941V25.78H51.7541V28.83C51.7541 29.09 51.7974 29.3 51.8841 29.46C51.9707 29.62 52.0874 29.7433 52.2341 29.83C52.3874 29.9167 52.5607 29.9733 52.7541 30C52.9541 30.0333 53.1641 30.05 53.3841 30.05C53.5241 30.05 53.6674 30.0467 53.8141 30.04C53.9607 30.0333 54.0941 30.02 54.2141 30V28.9C54.1474 28.9133 54.0774 28.9233 54.0041 28.93C53.9307 28.9367 53.8541 28.94 53.7741 28.94C53.5341 28.94 53.3741 28.9 53.2941 28.82C53.2141 28.74 53.1741 28.58 53.1741 28.34V25.78H54.2141V24.83H53.1741ZM56.3797 24.03V22.86H54.9597V24.03H56.3797ZM54.9597 24.83V30H56.3797V24.83H54.9597ZM58.7878 27.42C58.7878 27.2133 58.8078 27.01 58.8478 26.81C58.8878 26.61 58.9545 26.4333 59.0478 26.28C59.1478 26.1267 59.2778 26.0033 59.4378 25.91C59.5978 25.81 59.7978 25.76 60.0378 25.76C60.2778 25.76 60.4778 25.81 60.6378 25.91C60.8045 26.0033 60.9345 26.1267 61.0278 26.28C61.1278 26.4333 61.1978 26.61 61.2378 26.81C61.2778 27.01 61.2978 27.2133 61.2978 27.42C61.2978 27.6267 61.2778 27.83 61.2378 28.03C61.1978 28.2233 61.1278 28.4 61.0278 28.56C60.9345 28.7133 60.8045 28.8367 60.6378 28.93C60.4778 29.0233 60.2778 29.07 60.0378 29.07C59.7978 29.07 59.5978 29.0233 59.4378 28.93C59.2778 28.8367 59.1478 28.7133 59.0478 28.56C58.9545 28.4 58.8878 28.2233 58.8478 28.03C58.8078 27.83 58.7878 27.6267 58.7878 27.42ZM57.3678 27.42C57.3678 27.8333 57.4311 28.2067 57.5578 28.54C57.6845 28.8733 57.8645 29.16 58.0978 29.4C58.3311 29.6333 58.6111 29.8133 58.9378 29.94C59.2645 30.0667 59.6311 30.13 60.0378 30.13C60.4445 30.13 60.8111 30.0667 61.1378 29.94C61.4711 29.8133 61.7545 29.6333 61.9878 29.4C62.2211 29.16 62.4011 28.8733 62.5278 28.54C62.6545 28.2067 62.7178 27.8333 62.7178 27.42C62.7178 27.0067 62.6545 26.6333 62.5278 26.3C62.4011 25.96 62.2211 25.6733 61.9878 25.44C61.7545 25.2 61.4711 25.0167 61.1378 24.89C60.8111 24.7567 60.4445 24.69 60.0378 24.69C59.6311 24.69 59.2645 24.7567 58.9378 24.89C58.6111 25.0167 58.3311 25.2 58.0978 25.44C57.8645 25.6733 57.6845 25.96 57.5578 26.3C57.4311 26.6333 57.3678 27.0067 57.3678 27.42ZM63.6711 24.83V30H65.0911V27.29C65.0911 26.7633 65.1778 26.3867 65.3511 26.16C65.5244 25.9267 65.8044 25.81 66.1911 25.81C66.5311 25.81 66.7678 25.9167 66.9011 26.13C67.0344 26.3367 67.1011 26.6533 67.1011 27.08V30H68.5211V26.82C68.5211 26.5 68.4911 26.21 68.4311 25.95C68.3778 25.6833 68.2811 25.46 68.1411 25.28C68.0011 25.0933 67.8078 24.95 67.5611 24.85C67.3211 24.7433 67.0111 24.69 66.6311 24.69C66.3311 24.69 66.0378 24.76 65.7511 24.9C65.4644 25.0333 65.2311 25.25 65.0511 25.55H65.0211V24.83H63.6711ZM23.6503 36.65H25.0403C25.0203 36.3167 24.9403 36.03 24.8003 35.79C24.6603 35.5433 24.477 35.34 24.2503 35.18C24.0303 35.0133 23.777 34.89 23.4903 34.81C23.2103 34.73 22.917 34.69 22.6103 34.69C22.1903 34.69 21.817 34.76 21.4903 34.9C21.1636 35.04 20.887 35.2367 20.6603 35.49C20.4336 35.7367 20.2603 36.0333 20.1403 36.38C20.027 36.72 19.9703 37.09 19.9703 37.49C19.9703 37.8767 20.0336 38.2333 20.1603 38.56C20.287 38.88 20.4636 39.1567 20.6903 39.39C20.917 39.6233 21.1903 39.8067 21.5103 39.94C21.837 40.0667 22.1936 40.13 22.5803 40.13C23.267 40.13 23.8303 39.95 24.2703 39.59C24.7103 39.23 24.977 38.7067 25.0703 38.02H23.7003C23.6536 38.34 23.537 38.5967 23.3503 38.79C23.1703 38.9767 22.9103 39.07 22.5703 39.07C22.3503 39.07 22.1636 39.02 22.0103 38.92C21.857 38.82 21.7336 38.6933 21.6403 38.54C21.5536 38.38 21.4903 38.2033 21.4503 38.01C21.4103 37.8167 21.3903 37.6267 21.3903 37.44C21.3903 37.2467 21.4103 37.0533 21.4503 36.86C21.4903 36.66 21.557 36.48 21.6503 36.32C21.7503 36.1533 21.877 36.02 22.0303 35.92C22.1836 35.8133 22.3736 35.76 22.6003 35.76C23.207 35.76 23.557 36.0567 23.6503 36.65ZM27.1625 37.42C27.1625 37.2133 27.1825 37.01 27.2225 36.81C27.2625 36.61 27.3292 36.4333 27.4225 36.28C27.5225 36.1267 27.6525 36.0033 27.8125 35.91C27.9725 35.81 28.1725 35.76 28.4125 35.76C28.6525 35.76 28.8525 35.81 29.0125 35.91C29.1792 36.0033 29.3092 36.1267 29.4025 36.28C29.5025 36.4333 29.5725 36.61 29.6125 36.81C29.6525 37.01 29.6725 37.2133 29.6725 37.42C29.6725 37.6267 29.6525 37.83 29.6125 38.03C29.5725 38.2233 29.5025 38.4 29.4025 38.56C29.3092 38.7133 29.1792 38.8367 29.0125 38.93C28.8525 39.0233 28.6525 39.07 28.4125 39.07C28.1725 39.07 27.9725 39.0233 27.8125 38.93C27.6525 38.8367 27.5225 38.7133 27.4225 38.56C27.3292 38.4 27.2625 38.2233 27.2225 38.03C27.1825 37.83 27.1625 37.6267 27.1625 37.42ZM25.7425 37.42C25.7425 37.8333 25.8058 38.2067 25.9325 38.54C26.0592 38.8733 26.2392 39.16 26.4725 39.4C26.7058 39.6333 26.9858 39.8133 27.3125 39.94C27.6392 40.0667 28.0058 40.13 28.4125 40.13C28.8192 40.13 29.1858 40.0667 29.5125 39.94C29.8458 39.8133 30.1292 39.6333 30.3625 39.4C30.5958 39.16 30.7758 38.8733 30.9025 38.54C31.0292 38.2067 31.0925 37.8333 31.0925 37.42C31.0925 37.0067 31.0292 36.6333 30.9025 36.3C30.7758 35.96 30.5958 35.6733 30.3625 35.44C30.1292 35.2 29.8458 35.0167 29.5125 34.89C29.1858 34.7567 28.8192 34.69 28.4125 34.69C28.0058 34.69 27.6392 34.7567 27.3125 34.89C26.9858 35.0167 26.7058 35.2 26.4725 35.44C26.2392 35.6733 26.0592 35.96 25.9325 36.3C25.8058 36.6333 25.7425 37.0067 25.7425 37.42ZM32.0858 34.83V40H33.5058V37C33.5058 36.7467 33.5424 36.5433 33.6158 36.39C33.6891 36.23 33.7758 36.11 33.8758 36.03C33.9824 35.9433 34.0891 35.8867 34.1958 35.86C34.3091 35.8267 34.3991 35.81 34.4658 35.81C34.6924 35.81 34.8624 35.85 34.9758 35.93C35.0958 36.0033 35.1791 36.1033 35.2258 36.23C35.2791 36.3567 35.3091 36.4967 35.3158 36.65C35.3224 36.7967 35.3258 36.9467 35.3258 37.1V40H36.7458V37.12C36.7458 36.96 36.7558 36.8033 36.7758 36.65C36.8024 36.49 36.8491 36.35 36.9158 36.23C36.9891 36.1033 37.0858 36.0033 37.2058 35.93C37.3325 35.85 37.4958 35.81 37.6958 35.81C37.8958 35.81 38.0525 35.8433 38.1658 35.91C38.2858 35.9767 38.3758 36.0667 38.4358 36.18C38.4958 36.2933 38.5325 36.4267 38.5458 36.58C38.5591 36.7333 38.5658 36.8967 38.5658 37.07V40H39.9858V36.54C39.9858 36.2067 39.9391 35.9233 39.8458 35.69C39.7525 35.45 39.6225 35.2567 39.4558 35.11C39.2891 34.9633 39.0891 34.8567 38.8558 34.79C38.6225 34.7233 38.3691 34.69 38.0958 34.69C37.7358 34.69 37.4224 34.7767 37.1558 34.95C36.8958 35.1233 36.6891 35.3233 36.5358 35.55C36.3958 35.23 36.1891 35.0067 35.9158 34.88C35.6491 34.7533 35.3524 34.69 35.0258 34.69C34.6858 34.69 34.3824 34.7633 34.1158 34.91C33.8558 35.0567 33.6324 35.2633 33.4458 35.53H33.4258V34.83H32.0858ZM43.7483 39.07C43.5216 39.07 43.3283 39.0233 43.1683 38.93C43.0083 38.8367 42.8783 38.7167 42.7783 38.57C42.6849 38.4167 42.6149 38.24 42.5683 38.04C42.5283 37.84 42.5083 37.6367 42.5083 37.43C42.5083 37.2167 42.5283 37.01 42.5683 36.81C42.6083 36.61 42.6749 36.4333 42.7683 36.28C42.8683 36.1267 42.9949 36.0033 43.1483 35.91C43.3083 35.81 43.5049 35.76 43.7383 35.76C43.9649 35.76 44.1549 35.81 44.3083 35.91C44.4683 36.0033 44.5983 36.13 44.6983 36.29C44.7983 36.4433 44.8683 36.62 44.9083 36.82C44.9549 37.02 44.9783 37.2233 44.9783 37.43C44.9783 37.6367 44.9583 37.84 44.9183 38.04C44.8783 38.24 44.8083 38.4167 44.7083 38.57C44.6149 38.7167 44.4883 38.8367 44.3283 38.93C44.1749 39.0233 43.9816 39.07 43.7483 39.07ZM41.1383 34.83V41.81H42.5583V39.36H42.5783C42.7516 39.6133 42.9716 39.8067 43.2383 39.94C43.5116 40.0667 43.8083 40.13 44.1283 40.13C44.5083 40.13 44.8383 40.0567 45.1183 39.91C45.4049 39.7633 45.6416 39.5667 45.8283 39.32C46.0216 39.0733 46.1649 38.79 46.2583 38.47C46.3516 38.15 46.3983 37.8167 46.3983 37.47C46.3983 37.1033 46.3516 36.7533 46.2583 36.42C46.1649 36.08 46.0216 35.7833 45.8283 35.53C45.6349 35.2767 45.3916 35.0733 45.0983 34.92C44.8049 34.7667 44.4549 34.69 44.0483 34.69C43.7283 34.69 43.4349 34.7533 43.1683 34.88C42.9016 35.0067 42.6816 35.21 42.5083 35.49H42.4883V34.83H41.1383ZM47.3216 32.86V40H48.7416V32.86H47.3216ZM53.3697 36.86H51.0597C51.0664 36.76 51.0864 36.6467 51.1197 36.52C51.1597 36.3933 51.223 36.2733 51.3097 36.16C51.403 36.0467 51.523 35.9533 51.6697 35.88C51.823 35.8 52.013 35.76 52.2397 35.76C52.5864 35.76 52.843 35.8533 53.0097 36.04C53.183 36.2267 53.303 36.5 53.3697 36.86ZM51.0597 37.76H54.7897C54.8164 37.36 54.783 36.9767 54.6897 36.61C54.5964 36.2433 54.443 35.9167 54.2297 35.63C54.023 35.3433 53.7564 35.1167 53.4297 34.95C53.103 34.7767 52.7197 34.69 52.2797 34.69C51.8864 34.69 51.5264 34.76 51.1997 34.9C50.8797 35.04 50.603 35.2333 50.3697 35.48C50.1364 35.72 49.9564 36.0067 49.8297 36.34C49.703 36.6733 49.6397 37.0333 49.6397 37.42C49.6397 37.82 49.6997 38.1867 49.8197 38.52C49.9464 38.8533 50.123 39.14 50.3497 39.38C50.5764 39.62 50.853 39.8067 51.1797 39.94C51.5064 40.0667 51.873 40.13 52.2797 40.13C52.8664 40.13 53.3664 39.9967 53.7797 39.73C54.193 39.4633 54.4997 39.02 54.6997 38.4H53.4497C53.403 38.56 53.2764 38.7133 53.0697 38.86C52.863 39 52.6164 39.07 52.3297 39.07C51.9297 39.07 51.623 38.9667 51.4097 38.76C51.1964 38.5533 51.0797 38.22 51.0597 37.76ZM57.4619 34.83V33.28H56.0419V34.83H55.1819V35.78H56.0419V38.83C56.0419 39.09 56.0852 39.3 56.1719 39.46C56.2585 39.62 56.3752 39.7433 56.5219 39.83C56.6752 39.9167 56.8485 39.9733 57.0419 40C57.2419 40.0333 57.4519 40.05 57.6719 40.05C57.8119 40.05 57.9552 40.0467 58.1019 40.04C58.2485 40.0333 58.3819 40.02 58.5019 40V38.9C58.4352 38.9133 58.3652 38.9233 58.2919 38.93C58.2185 38.9367 58.1419 38.94 58.0619 38.94C57.8219 38.94 57.6619 38.9 57.5819 38.82C57.5019 38.74 57.4619 38.58 57.4619 38.34V35.78H58.5019V34.83H57.4619ZM62.6875 36.86H60.3775C60.3842 36.76 60.4042 36.6467 60.4375 36.52C60.4775 36.3933 60.5408 36.2733 60.6275 36.16C60.7208 36.0467 60.8408 35.9533 60.9875 35.88C61.1408 35.8 61.3308 35.76 61.5575 35.76C61.9042 35.76 62.1608 35.8533 62.3275 36.04C62.5008 36.2267 62.6208 36.5 62.6875 36.86ZM60.3775 37.76H64.1075C64.1342 37.36 64.1008 36.9767 64.0075 36.61C63.9142 36.2433 63.7608 35.9167 63.5475 35.63C63.3408 35.3433 63.0742 35.1167 62.7475 34.95C62.4208 34.7767 62.0375 34.69 61.5975 34.69C61.2042 34.69 60.8442 34.76 60.5175 34.9C60.1975 35.04 59.9208 35.2333 59.6875 35.48C59.4542 35.72 59.2742 36.0067 59.1475 36.34C59.0208 36.6733 58.9575 37.0333 58.9575 37.42C58.9575 37.82 59.0175 38.1867 59.1375 38.52C59.2642 38.8533 59.4408 39.14 59.6675 39.38C59.8942 39.62 60.1708 39.8067 60.4975 39.94C60.8242 40.0667 61.1908 40.13 61.5975 40.13C62.1842 40.13 62.6842 39.9967 63.0975 39.73C63.5108 39.4633 63.8175 39.02 64.0175 38.4H62.7675C62.7208 38.56 62.5942 38.7133 62.3875 38.86C62.1808 39 61.9342 39.07 61.6475 39.07C61.2475 39.07 60.9408 38.9667 60.7275 38.76C60.5142 38.5533 60.3975 38.22 60.3775 37.76Z" fill="white"/>
<rect x="7" y="50" width="22" height="1" fill="#0B0C0C"/>
<rect x="7" y="55" width="72" height="1" fill="#0B0C0C"/>
<rect x="7" y="65" width="72" height="1" fill="#0B0C0C"/>
<rect x="7" y="60" width="72" height="1" fill="#0B0C0C"/>
<rect x="7" y="70" width="40" height="1" fill="#0B0C0C"/>
</svg>
