<svg width="110" height="100" viewBox="0 0 110 100" fill="none" xmlns="http://www.w3.org/2000/svg">
<rect width="110" height="100" fill="white"/>
<rect width="110" height="10" fill="#1D70B8"/>
<rect x="1" y="11" width="108" height="88" stroke="black" stroke-width="2"/>
<g clip-path="url(#clip0_1003_246)">
<path d="M14.085 23.838H16.061C16.0003 23.3007 15.853 22.824 15.619 22.408C15.385 21.992 15.086 21.6453 14.722 21.368C14.3667 21.082 13.9593 20.8653 13.5 20.718C13.0493 20.5707 12.5683 20.497 12.057 20.497C11.3463 20.497 10.705 20.6227 10.133 20.874C9.56967 21.1253 9.093 21.472 8.703 21.914C8.313 22.356 8.014 22.876 7.806 23.474C7.598 24.0633 7.494 24.7047 7.494 25.398C7.494 26.074 7.598 26.7067 7.806 27.296C8.014 27.8767 8.313 28.3837 8.703 28.817C9.093 29.2503 9.56967 29.5927 10.133 29.844C10.705 30.0867 11.3463 30.208 12.057 30.208C12.629 30.208 13.1533 30.1213 13.63 29.948C14.1067 29.7747 14.5227 29.5233 14.878 29.194C15.2333 28.8647 15.5193 28.466 15.736 27.998C15.9527 27.53 16.087 27.0057 16.139 26.425H14.163C14.085 27.049 13.8683 27.5517 13.513 27.933C13.1663 28.3143 12.681 28.505 12.057 28.505C11.5977 28.505 11.2077 28.4183 10.887 28.245C10.5663 28.063 10.3063 27.8247 10.107 27.53C9.90767 27.2353 9.76033 26.906 9.665 26.542C9.57833 26.1693 9.535 25.788 9.535 25.398C9.535 24.9907 9.57833 24.5963 9.665 24.215C9.76033 23.8337 9.90767 23.4957 10.107 23.201C10.3063 22.8977 10.5663 22.6593 10.887 22.486C11.2077 22.304 11.5977 22.213 12.057 22.213C12.3083 22.213 12.5467 22.2563 12.772 22.343C13.006 22.421 13.214 22.5337 13.396 22.681C13.578 22.8283 13.7297 23.0017 13.851 23.201C13.9723 23.3917 14.0503 23.604 14.085 23.838ZM17.3377 20.718V30H19.1837V26.477C19.1837 25.7923 19.2964 25.3027 19.5217 25.008C19.7471 24.7047 20.1111 24.553 20.6137 24.553C21.0557 24.553 21.3634 24.6917 21.5367 24.969C21.7101 25.2377 21.7967 25.6493 21.7967 26.204V30H23.6427V25.866C23.6427 25.45 23.6037 25.073 23.5257 24.735C23.4564 24.3883 23.3307 24.098 23.1487 23.864C22.9667 23.6213 22.7154 23.435 22.3947 23.305C22.0827 23.1663 21.6797 23.097 21.1857 23.097C20.8391 23.097 20.4837 23.188 20.1197 23.37C19.7557 23.5433 19.4567 23.825 19.2227 24.215H19.1837V20.718H17.3377ZM29.5678 25.918H26.5648C26.5735 25.788 26.5995 25.6407 26.6428 25.476C26.6948 25.3113 26.7771 25.1553 26.8898 25.008C27.0111 24.8607 27.1671 24.7393 27.3578 24.644C27.5571 24.54 27.8041 24.488 28.0988 24.488C28.5495 24.488 28.8831 24.6093 29.0998 24.852C29.3251 25.0947 29.4811 25.45 29.5678 25.918ZM26.5648 27.088H31.4138C31.4485 26.568 31.4051 26.0697 31.2838 25.593C31.1625 25.1163 30.9631 24.6917 30.6858 24.319C30.4171 23.9463 30.0705 23.6517 29.6458 23.435C29.2211 23.2097 28.7228 23.097 28.1508 23.097C27.6395 23.097 27.1715 23.188 26.7468 23.37C26.3308 23.552 25.9711 23.8033 25.6678 24.124C25.3645 24.436 25.1305 24.8087 24.9658 25.242C24.8011 25.6753 24.7188 26.1433 24.7188 26.646C24.7188 27.166 24.7968 27.6427 24.9528 28.076C25.1175 28.5093 25.3471 28.882 25.6418 29.194C25.9365 29.506 26.2961 29.7487 26.7208 29.922C27.1455 30.0867 27.6221 30.169 28.1508 30.169C28.9135 30.169 29.5635 29.9957 30.1008 29.649C30.6381 29.3023 31.0368 28.726 31.2968 27.92H29.6718C29.6111 28.128 29.4465 28.3273 29.1778 28.518C28.9091 28.7 28.5885 28.791 28.2158 28.791C27.6958 28.791 27.2971 28.6567 27.0198 28.388C26.7425 28.1193 26.5908 27.686 26.5648 27.088ZM37.0846 25.645H38.8916C38.8656 25.2117 38.7616 24.839 38.5796 24.527C38.3976 24.2063 38.1593 23.942 37.8646 23.734C37.5786 23.5173 37.2493 23.357 36.8766 23.253C36.5126 23.149 36.1313 23.097 35.7326 23.097C35.1866 23.097 34.7013 23.188 34.2766 23.37C33.852 23.552 33.4923 23.8077 33.1976 24.137C32.903 24.4577 32.6776 24.8433 32.5216 25.294C32.3743 25.736 32.3006 26.217 32.3006 26.737C32.3006 27.2397 32.383 27.7033 32.5476 28.128C32.7123 28.544 32.942 28.9037 33.2366 29.207C33.5313 29.5103 33.8866 29.7487 34.3026 29.922C34.7273 30.0867 35.191 30.169 35.6936 30.169C36.5863 30.169 37.3186 29.935 37.8906 29.467C38.4626 28.999 38.8093 28.3187 38.9306 27.426H37.1496C37.089 27.842 36.9373 28.1757 36.6946 28.427C36.4606 28.6697 36.1226 28.791 35.6806 28.791C35.3946 28.791 35.152 28.726 34.9526 28.596C34.7533 28.466 34.593 28.3013 34.4716 28.102C34.359 27.894 34.2766 27.6643 34.2246 27.413C34.1726 27.1617 34.1466 26.9147 34.1466 26.672C34.1466 26.4207 34.1726 26.1693 34.2246 25.918C34.2766 25.658 34.3633 25.424 34.4846 25.216C34.6146 24.9993 34.7793 24.826 34.9786 24.696C35.178 24.5573 35.425 24.488 35.7196 24.488C36.5083 24.488 36.9633 24.8737 37.0846 25.645ZM40.1425 20.718V30H41.9885V27.686L42.7035 26.997L44.5495 30H46.7855L43.9645 25.749L46.4995 23.279H44.3155L41.9885 25.697V20.718H40.1425ZM54.3715 30.832L57.1795 23.279H55.2685L53.7995 27.881H53.7735L52.2525 23.279H50.2895L52.6425 29.584C52.6945 29.714 52.7205 29.8527 52.7205 30C52.7205 30.1993 52.6598 30.3813 52.5385 30.546C52.4258 30.7107 52.2482 30.806 52.0055 30.832C51.8235 30.8407 51.6415 30.8363 51.4595 30.819C51.2775 30.8017 51.0998 30.7843 50.9265 30.767V32.288C51.1172 32.3053 51.3035 32.3183 51.4855 32.327C51.6762 32.3443 51.8668 32.353 52.0575 32.353C52.6902 32.353 53.1842 32.236 53.5395 32.002C53.8948 31.768 54.1722 31.378 54.3715 30.832ZM59.4357 26.646C59.4357 26.3773 59.4617 26.113 59.5137 25.853C59.5657 25.593 59.6524 25.3633 59.7737 25.164C59.9037 24.9647 60.0727 24.8043 60.2807 24.683C60.4887 24.553 60.7487 24.488 61.0607 24.488C61.3727 24.488 61.6327 24.553 61.8407 24.683C62.0574 24.8043 62.2264 24.9647 62.3477 25.164C62.4777 25.3633 62.5687 25.593 62.6207 25.853C62.6727 26.113 62.6987 26.3773 62.6987 26.646C62.6987 26.9147 62.6727 27.179 62.6207 27.439C62.5687 27.6903 62.4777 27.92 62.3477 28.128C62.2264 28.3273 62.0574 28.4877 61.8407 28.609C61.6327 28.7303 61.3727 28.791 61.0607 28.791C60.7487 28.791 60.4887 28.7303 60.2807 28.609C60.0727 28.4877 59.9037 28.3273 59.7737 28.128C59.6524 27.92 59.5657 27.6903 59.5137 27.439C59.4617 27.179 59.4357 26.9147 59.4357 26.646ZM57.5897 26.646C57.5897 27.1833 57.672 27.6687 57.8367 28.102C58.0014 28.5353 58.2354 28.908 58.5387 29.22C58.842 29.5233 59.206 29.7573 59.6307 29.922C60.0554 30.0867 60.532 30.169 61.0607 30.169C61.5894 30.169 62.066 30.0867 62.4907 29.922C62.924 29.7573 63.2924 29.5233 63.5957 29.22C63.899 28.908 64.133 28.5353 64.2977 28.102C64.4624 27.6687 64.5447 27.1833 64.5447 26.646C64.5447 26.1087 64.4624 25.6233 64.2977 25.19C64.133 24.748 63.899 24.3753 63.5957 24.072C63.2924 23.76 62.924 23.5217 62.4907 23.357C62.066 23.1837 61.5894 23.097 61.0607 23.097C60.532 23.097 60.0554 23.1837 59.6307 23.357C59.206 23.5217 58.842 23.76 58.5387 24.072C58.2354 24.3753 58.0014 24.748 57.8367 25.19C57.672 25.6233 57.5897 26.1087 57.5897 26.646ZM72.05 30V23.279H70.204V26.802C70.204 27.4867 70.0913 27.9807 69.866 28.284C69.6406 28.5787 69.2766 28.726 68.774 28.726C68.332 28.726 68.0243 28.5917 67.851 28.323C67.6776 28.0457 67.591 27.6297 67.591 27.075V23.279H65.745V27.413C65.745 27.829 65.7796 28.2103 65.849 28.557C65.927 28.895 66.057 29.1853 66.239 29.428C66.421 29.662 66.668 29.844 66.98 29.974C67.3006 30.104 67.708 30.169 68.202 30.169C68.592 30.169 68.9733 30.0823 69.346 29.909C69.7186 29.7357 70.022 29.454 70.256 29.064H70.295V30H72.05ZM73.451 23.279V30H75.297V26.971C75.297 26.6677 75.3274 26.386 75.388 26.126C75.4487 25.866 75.5484 25.6407 75.687 25.45C75.8344 25.2507 76.025 25.0947 76.259 24.982C76.493 24.8693 76.779 24.813 77.117 24.813C77.2297 24.813 77.3467 24.8217 77.468 24.839C77.5894 24.8477 77.6934 24.8607 77.78 24.878V23.162C77.6327 23.1187 77.4984 23.097 77.377 23.097C77.143 23.097 76.9177 23.1317 76.701 23.201C76.4844 23.2703 76.2807 23.37 76.09 23.5C75.8994 23.6213 75.7304 23.773 75.583 23.955C75.4357 24.1283 75.3187 24.319 75.232 24.527H75.206V23.279H73.451ZM7.624 41.346C7.65 40.9127 7.75833 40.553 7.949 40.267C8.13967 39.981 8.38233 39.7513 8.677 39.578C8.97167 39.4047 9.301 39.2833 9.665 39.214C10.0377 39.136 10.4103 39.097 10.783 39.097C11.121 39.097 11.4633 39.123 11.81 39.175C12.1567 39.2183 12.473 39.3093 12.759 39.448C13.045 39.5867 13.279 39.7817 13.461 40.033C13.643 40.2757 13.734 40.6007 13.734 41.008V44.505C13.734 44.8083 13.7513 45.0987 13.786 45.376C13.8207 45.6533 13.8813 45.8613 13.968 46H12.096C12.0613 45.896 12.031 45.792 12.005 45.688C11.9877 45.5753 11.9747 45.4627 11.966 45.35C11.6713 45.6533 11.3247 45.8657 10.926 45.987C10.5273 46.1083 10.12 46.169 9.704 46.169C9.38333 46.169 9.08433 46.13 8.807 46.052C8.52967 45.974 8.287 45.8527 8.079 45.688C7.871 45.5233 7.70633 45.3153 7.585 45.064C7.47233 44.8127 7.416 44.5137 7.416 44.167C7.416 43.7857 7.481 43.4737 7.611 43.231C7.74967 42.9797 7.923 42.7803 8.131 42.633C8.34767 42.4857 8.59033 42.3773 8.859 42.308C9.13633 42.23 9.41367 42.1693 9.691 42.126C9.96833 42.0827 10.2413 42.048 10.51 42.022C10.7787 41.996 11.017 41.957 11.225 41.905C11.433 41.853 11.5977 41.7793 11.719 41.684C11.8403 41.58 11.8967 41.4327 11.888 41.242C11.888 41.0427 11.8533 40.8867 11.784 40.774C11.7233 40.6527 11.6367 40.5617 11.524 40.501C11.42 40.4317 11.2943 40.3883 11.147 40.371C11.0083 40.345 10.8567 40.332 10.692 40.332C10.328 40.332 10.042 40.41 9.834 40.566C9.626 40.722 9.50467 40.982 9.47 41.346H7.624ZM11.888 42.711C11.81 42.7803 11.7103 42.8367 11.589 42.88C11.4763 42.9147 11.3507 42.945 11.212 42.971C11.082 42.997 10.9433 43.0187 10.796 43.036C10.6487 43.0533 10.5013 43.075 10.354 43.101C10.2153 43.127 10.0767 43.1617 9.938 43.205C9.808 43.2483 9.691 43.309 9.587 43.387C9.49167 43.4563 9.41367 43.5473 9.353 43.66C9.29233 43.7727 9.262 43.9157 9.262 44.089C9.262 44.2537 9.29233 44.3923 9.353 44.505C9.41367 44.6177 9.496 44.7087 9.6 44.778C9.704 44.8387 9.82533 44.882 9.964 44.908C10.1027 44.934 10.2457 44.947 10.393 44.947C10.757 44.947 11.0387 44.8863 11.238 44.765C11.4373 44.6437 11.5847 44.5007 11.68 44.336C11.7753 44.1627 11.8317 43.9893 11.849 43.816C11.875 43.6427 11.888 43.504 11.888 43.4V42.711ZM15.1668 39.279V46H17.0128V42.477C17.0128 41.7923 17.1255 41.3027 17.3508 41.008C17.5762 40.7047 17.9402 40.553 18.4428 40.553C18.8848 40.553 19.1925 40.6917 19.3658 40.969C19.5392 41.2377 19.6258 41.6493 19.6258 42.204V46H21.4718V41.866C21.4718 41.45 21.4328 41.073 21.3548 40.735C21.2855 40.3883 21.1598 40.098 20.9778 39.864C20.7958 39.6213 20.5445 39.435 20.2238 39.305C19.9118 39.1663 19.5088 39.097 19.0148 39.097C18.6248 39.097 18.2435 39.188 17.8708 39.37C17.4982 39.5433 17.1948 39.825 16.9608 40.215H16.9218V39.279H15.1668ZM24.3029 43.816H22.5479C22.5652 44.2667 22.6649 44.6437 22.8469 44.947C23.0376 45.2417 23.2759 45.48 23.5619 45.662C23.8566 45.844 24.1902 45.974 24.5629 46.052C24.9356 46.13 25.3169 46.169 25.7069 46.169C26.0882 46.169 26.4609 46.13 26.8249 46.052C27.1976 45.9827 27.5269 45.857 27.8129 45.675C28.0989 45.493 28.3286 45.2547 28.5019 44.96C28.6839 44.6567 28.7749 44.284 28.7749 43.842C28.7749 43.53 28.7142 43.27 28.5929 43.062C28.4716 42.8453 28.3112 42.6677 28.1119 42.529C27.9126 42.3817 27.6829 42.2647 27.4229 42.178C27.1716 42.0913 26.9116 42.0177 26.6429 41.957C26.3829 41.8963 26.1272 41.84 25.8759 41.788C25.6246 41.736 25.3992 41.6797 25.1999 41.619C25.0092 41.5497 24.8532 41.463 24.7319 41.359C24.6106 41.255 24.5499 41.1207 24.5499 40.956C24.5499 40.8173 24.5846 40.709 24.6539 40.631C24.7232 40.5443 24.8056 40.4793 24.9009 40.436C25.0049 40.3927 25.1176 40.3667 25.2389 40.358C25.3602 40.3407 25.4729 40.332 25.5769 40.332C25.9062 40.332 26.1922 40.397 26.4349 40.527C26.6776 40.6483 26.8119 40.8867 26.8379 41.242H28.5929C28.5582 40.826 28.4499 40.4837 28.2679 40.215C28.0946 39.9377 27.8736 39.7167 27.6049 39.552C27.3362 39.3873 27.0286 39.2703 26.6819 39.201C26.3439 39.1317 25.9929 39.097 25.6289 39.097C25.2649 39.097 24.9096 39.1317 24.5629 39.201C24.2162 39.2617 23.9042 39.3743 23.6269 39.539C23.3496 39.695 23.1242 39.9117 22.9509 40.189C22.7862 40.4663 22.7039 40.8217 22.7039 41.255C22.7039 41.5497 22.7646 41.801 22.8859 42.009C23.0072 42.2083 23.1676 42.3773 23.3669 42.516C23.5662 42.646 23.7916 42.7543 24.0429 42.841C24.3029 42.919 24.5672 42.9883 24.8359 43.049C25.4946 43.1877 26.0059 43.3263 26.3699 43.465C26.7426 43.6037 26.9289 43.8117 26.9289 44.089C26.9289 44.2537 26.8899 44.3923 26.8119 44.505C26.7339 44.609 26.6342 44.6957 26.5129 44.765C26.4002 44.8257 26.2702 44.8733 26.1229 44.908C25.9842 44.934 25.8499 44.947 25.7199 44.947C25.5379 44.947 25.3602 44.9253 25.1869 44.882C25.0222 44.8387 24.8749 44.7737 24.7449 44.687C24.6149 44.5917 24.5066 44.4747 24.4199 44.336C24.3419 44.1887 24.3029 44.0153 24.3029 43.816ZM37.5383 46L39.6573 39.279H37.7593L36.5243 43.829H36.4983L35.3543 39.279H33.5603L32.4423 43.842H32.4163L31.1813 39.279H29.2313L31.3633 46H33.2743L34.4183 41.489H34.4443L35.6403 46H37.5383ZM44.9672 41.918H41.9642C41.9729 41.788 41.9989 41.6407 42.0422 41.476C42.0942 41.3113 42.1765 41.1553 42.2892 41.008C42.4105 40.8607 42.5665 40.7393 42.7572 40.644C42.9565 40.54 43.2035 40.488 43.4982 40.488C43.9489 40.488 44.2825 40.6093 44.4992 40.852C44.7245 41.0947 44.8805 41.45 44.9672 41.918ZM41.9642 43.088H46.8132C46.8479 42.568 46.8045 42.0697 46.6832 41.593C46.5619 41.1163 46.3625 40.6917 46.0852 40.319C45.8165 39.9463 45.4699 39.6517 45.0452 39.435C44.6205 39.2097 44.1222 39.097 43.5502 39.097C43.0389 39.097 42.5709 39.188 42.1462 39.37C41.7302 39.552 41.3705 39.8033 41.0672 40.124C40.7639 40.436 40.5299 40.8087 40.3652 41.242C40.2005 41.6753 40.1182 42.1433 40.1182 42.646C40.1182 43.166 40.1962 43.6427 40.3522 44.076C40.5169 44.5093 40.7465 44.882 41.0412 45.194C41.3359 45.506 41.6955 45.7487 42.1202 45.922C42.5449 46.0867 43.0215 46.169 43.5502 46.169C44.3129 46.169 44.9629 45.9957 45.5002 45.649C46.0375 45.3023 46.4362 44.726 46.6962 43.92H45.0712C45.0105 44.128 44.8459 44.3273 44.5772 44.518C44.3085 44.7 43.9879 44.791 43.6152 44.791C43.0952 44.791 42.6965 44.6567 42.4192 44.388C42.1419 44.1193 41.9902 43.686 41.9642 43.088ZM47.9081 39.279V46H49.7541V42.971C49.7541 42.6677 49.7844 42.386 49.8451 42.126C49.9057 41.866 50.0054 41.6407 50.1441 41.45C50.2914 41.2507 50.4821 41.0947 50.7161 40.982C50.9501 40.8693 51.2361 40.813 51.5741 40.813C51.6867 40.813 51.8037 40.8217 51.9251 40.839C52.0464 40.8477 52.1504 40.8607 52.2371 40.878V39.162C52.0897 39.1187 51.9554 39.097 51.8341 39.097C51.6001 39.097 51.3747 39.1317 51.1581 39.201C50.9414 39.2703 50.7377 39.37 50.5471 39.5C50.3564 39.6213 50.1874 39.773 50.0401 39.955C49.8927 40.1283 49.7757 40.319 49.6891 40.527H49.6631V39.279H47.9081ZM54.3908 43.816H52.6358C52.6531 44.2667 52.7528 44.6437 52.9348 44.947C53.1255 45.2417 53.3638 45.48 53.6498 45.662C53.9445 45.844 54.2781 45.974 54.6508 46.052C55.0235 46.13 55.4048 46.169 55.7948 46.169C56.1761 46.169 56.5488 46.13 56.9128 46.052C57.2855 45.9827 57.6148 45.857 57.9008 45.675C58.1868 45.493 58.4165 45.2547 58.5898 44.96C58.7718 44.6567 58.8628 44.284 58.8628 43.842C58.8628 43.53 58.8021 43.27 58.6808 43.062C58.5595 42.8453 58.3991 42.6677 58.1998 42.529C58.0005 42.3817 57.7708 42.2647 57.5108 42.178C57.2595 42.0913 56.9995 42.0177 56.7308 41.957C56.4708 41.8963 56.2151 41.84 55.9638 41.788C55.7125 41.736 55.4871 41.6797 55.2878 41.619C55.0971 41.5497 54.9411 41.463 54.8198 41.359C54.6985 41.255 54.6378 41.1207 54.6378 40.956C54.6378 40.8173 54.6725 40.709 54.7418 40.631C54.8111 40.5443 54.8935 40.4793 54.9888 40.436C55.0928 40.3927 55.2055 40.3667 55.3268 40.358C55.4481 40.3407 55.5608 40.332 55.6648 40.332C55.9941 40.332 56.2801 40.397 56.5228 40.527C56.7655 40.6483 56.8998 40.8867 56.9258 41.242H58.6808C58.6461 40.826 58.5378 40.4837 58.3558 40.215C58.1825 39.9377 57.9615 39.7167 57.6928 39.552C57.4241 39.3873 57.1165 39.2703 56.7698 39.201C56.4318 39.1317 56.0808 39.097 55.7168 39.097C55.3528 39.097 54.9975 39.1317 54.6508 39.201C54.3041 39.2617 53.9921 39.3743 53.7148 39.539C53.4375 39.695 53.2121 39.9117 53.0388 40.189C52.8741 40.4663 52.7918 40.8217 52.7918 41.255C52.7918 41.5497 52.8525 41.801 52.9738 42.009C53.0951 42.2083 53.2555 42.3773 53.4548 42.516C53.6541 42.646 53.8795 42.7543 54.1308 42.841C54.3908 42.919 54.6551 42.9883 54.9238 43.049C55.5825 43.1877 56.0938 43.3263 56.4578 43.465C56.8305 43.6037 57.0168 43.8117 57.0168 44.089C57.0168 44.2537 56.9778 44.3923 56.8998 44.505C56.8218 44.609 56.7221 44.6957 56.6008 44.765C56.4881 44.8257 56.3581 44.8733 56.2108 44.908C56.0721 44.934 55.9378 44.947 55.8078 44.947C55.6258 44.947 55.4481 44.9253 55.2748 44.882C55.1101 44.8387 54.9628 44.7737 54.8328 44.687C54.7028 44.5917 54.5945 44.4747 54.5078 44.336C54.4298 44.1887 54.3908 44.0153 54.3908 43.816Z" fill="#231F20"/>
</g>
<rect x="7" y="70" width="70" height="1" fill="#BFC1C3"/>
<rect x="7" y="62" width="70" height="1" fill="#BFC1C3"/>
<rect x="7" y="54" width="70" height="1" fill="#BFC1C3"/>
<rect x="67.2778" y="58" width="9.72222" height="1" fill="#005EA5"/>
<rect x="67.2778" y="74" width="9.72222" height="1" fill="#005EA5"/>
<rect x="67.2778" y="66" width="9.72222" height="1" fill="#005EA5"/>
<rect x="7" y="58" width="11.6667" height="1" fill="#0B0C0C"/>
<rect x="25.4722" y="58" width="32.0833" height="1" fill="#0B0C0C"/>
<rect x="7" y="74" width="11.6667" height="1" fill="#0B0C0C"/>
<rect x="25.4722" y="74" width="32.0833" height="1" fill="#0B0C0C"/>
<rect x="7" y="66" width="11.6667" height="1" fill="#0B0C0C"/>
<rect x="25.4722" y="66" width="32.0833" height="1" fill="#0B0C0C"/>
<g filter="url(#filter0_i_1003_246)">
<rect x="7" y="80" width="26" height="10" fill="#00823B"/>
</g>
<defs>
<filter id="filter0_i_1003_246" x="7" y="80" width="26" height="10" filterUnits="userSpaceOnUse" color-interpolation-filters="sRGB">
<feFlood flood-opacity="0" result="BackgroundImageFix"/>
<feBlend mode="normal" in="SourceGraphic" in2="BackgroundImageFix" result="shape"/>
<feColorMatrix in="SourceAlpha" type="matrix" values="0 0 0 0 0 0 0 0 0 0 0 0 0 0 0 0 0 0 127 0" result="hardAlpha"/>
<feOffset dy="-1"/>
<feComposite in2="hardAlpha" operator="arithmetic" k2="-1" k3="1"/>
<feColorMatrix type="matrix" values="0 0 0 0 0 0 0 0 0 0.392157 0 0 0 0 0.207843 0 0 0 1 0"/>
<feBlend mode="normal" in2="shape" result="effect1_innerShadow_1003_246"/>
</filter>
<clipPath id="clip0_1003_246">
<rect width="80" height="32" fill="white" transform="translate(7 17)"/>
</clipPath>
</defs>
</svg>
