<svg width="110" height="84" viewBox="0 0 110 84" fill="none" xmlns="http://www.w3.org/2000/svg">
<rect width="110" height="84" fill="white"/>
<rect width="110" height="10" fill="#1D70B8"/>
<rect x="1" y="11" width="108" height="72" stroke="black" stroke-width="2"/>
<g clip-path="url(#clip0_1003_157)">
<path d="M9.288 26.919H7.312C7.30333 27.491 7.40733 27.985 7.624 28.401C7.84067 28.817 8.131 29.1593 8.495 29.428C8.86767 29.6967 9.29233 29.8917 9.769 30.013C10.2543 30.143 10.7527 30.208 11.264 30.208C11.8967 30.208 12.4513 30.1343 12.928 29.987C13.4133 29.8397 13.8163 29.636 14.137 29.376C14.4663 29.1073 14.7133 28.791 14.878 28.427C15.0427 28.063 15.125 27.6687 15.125 27.244C15.125 26.724 15.0123 26.2993 14.787 25.97C14.5703 25.632 14.3103 25.3633 14.007 25.164C13.7037 24.9647 13.396 24.8217 13.084 24.735C12.7807 24.6397 12.5423 24.5747 12.369 24.54C11.7883 24.3927 11.316 24.2713 10.952 24.176C10.5967 24.0807 10.315 23.9853 10.107 23.89C9.90767 23.7947 9.77333 23.6907 9.704 23.578C9.63467 23.4653 9.6 23.318 9.6 23.136C9.6 22.9367 9.64333 22.772 9.73 22.642C9.81667 22.512 9.925 22.4037 10.055 22.317C10.1937 22.2303 10.3453 22.1697 10.51 22.135C10.6747 22.1003 10.8393 22.083 11.004 22.083C11.2553 22.083 11.485 22.1047 11.693 22.148C11.9097 22.1913 12.1003 22.265 12.265 22.369C12.4297 22.473 12.5597 22.616 12.655 22.798C12.759 22.98 12.8197 23.2097 12.837 23.487H14.813C14.813 22.9497 14.709 22.4947 14.501 22.122C14.3017 21.7407 14.0287 21.4287 13.682 21.186C13.3353 20.9433 12.9367 20.77 12.486 20.666C12.044 20.5533 11.5803 20.497 11.095 20.497C10.679 20.497 10.263 20.5533 9.847 20.666C9.431 20.7787 9.05833 20.952 8.729 21.186C8.39967 21.42 8.131 21.7147 7.923 22.07C7.72367 22.4167 7.624 22.8283 7.624 23.305C7.624 23.7297 7.702 24.0937 7.858 24.397C8.02267 24.6917 8.235 24.9387 8.495 25.138C8.755 25.3373 9.04967 25.502 9.379 25.632C9.70833 25.7533 10.0463 25.8573 10.393 25.944C10.731 26.0393 11.0647 26.126 11.394 26.204C11.7233 26.282 12.018 26.373 12.278 26.477C12.538 26.581 12.746 26.711 12.902 26.867C13.0667 27.023 13.149 27.2267 13.149 27.478C13.149 27.712 13.0883 27.907 12.967 28.063C12.8457 28.2103 12.694 28.3273 12.512 28.414C12.33 28.5007 12.135 28.5613 11.927 28.596C11.719 28.622 11.524 28.635 11.342 28.635C11.0733 28.635 10.8133 28.6047 10.562 28.544C10.3107 28.4747 10.0897 28.375 9.899 28.245C9.717 28.1063 9.56967 27.9287 9.457 27.712C9.34433 27.4953 9.288 27.231 9.288 26.919ZM18.4844 23.279V21.264H16.6384V23.279H15.5204V24.514H16.6384V28.479C16.6384 28.817 16.6947 29.09 16.8074 29.298C16.92 29.506 17.0717 29.6663 17.2624 29.779C17.4617 29.8917 17.687 29.9653 17.9384 30C18.1984 30.0433 18.4714 30.065 18.7574 30.065C18.9394 30.065 19.1257 30.0607 19.3164 30.052C19.507 30.0433 19.6804 30.026 19.8364 30V28.57C19.7497 28.5873 19.6587 28.6003 19.5634 28.609C19.468 28.6177 19.3684 28.622 19.2644 28.622C18.9524 28.622 18.7444 28.57 18.6404 28.466C18.5364 28.362 18.4844 28.154 18.4844 27.842V24.514H19.8364V23.279H18.4844ZM20.6367 25.346C20.6627 24.9127 20.771 24.553 20.9617 24.267C21.1524 23.981 21.395 23.7513 21.6897 23.578C21.9844 23.4047 22.3137 23.2833 22.6777 23.214C23.0504 23.136 23.423 23.097 23.7957 23.097C24.1337 23.097 24.476 23.123 24.8227 23.175C25.1694 23.2183 25.4857 23.3093 25.7717 23.448C26.0577 23.5867 26.2917 23.7817 26.4737 24.033C26.6557 24.2757 26.7467 24.6007 26.7467 25.008V28.505C26.7467 28.8083 26.764 29.0987 26.7987 29.376C26.8334 29.6533 26.894 29.8613 26.9807 30H25.1087C25.074 29.896 25.0437 29.792 25.0177 29.688C25.0004 29.5753 24.9874 29.4627 24.9787 29.35C24.684 29.6533 24.3374 29.8657 23.9387 29.987C23.54 30.1083 23.1327 30.169 22.7167 30.169C22.396 30.169 22.097 30.13 21.8197 30.052C21.5424 29.974 21.2997 29.8527 21.0917 29.688C20.8837 29.5233 20.719 29.3153 20.5977 29.064C20.485 28.8127 20.4287 28.5137 20.4287 28.167C20.4287 27.7857 20.4937 27.4737 20.6237 27.231C20.7624 26.9797 20.9357 26.7803 21.1437 26.633C21.3604 26.4857 21.603 26.3773 21.8717 26.308C22.149 26.23 22.4264 26.1693 22.7037 26.126C22.981 26.0827 23.254 26.048 23.5227 26.022C23.7914 25.996 24.0297 25.957 24.2377 25.905C24.4457 25.853 24.6104 25.7793 24.7317 25.684C24.853 25.58 24.9094 25.4327 24.9007 25.242C24.9007 25.0427 24.866 24.8867 24.7967 24.774C24.736 24.6527 24.6494 24.5617 24.5367 24.501C24.4327 24.4317 24.307 24.3883 24.1597 24.371C24.021 24.345 23.8694 24.332 23.7047 24.332C23.3407 24.332 23.0547 24.41 22.8467 24.566C22.6387 24.722 22.5174 24.982 22.4827 25.346H20.6367ZM24.9007 26.711C24.8227 26.7803 24.723 26.8367 24.6017 26.88C24.489 26.9147 24.3634 26.945 24.2247 26.971C24.0947 26.997 23.956 27.0187 23.8087 27.036C23.6614 27.0533 23.514 27.075 23.3667 27.101C23.228 27.127 23.0894 27.1617 22.9507 27.205C22.8207 27.2483 22.7037 27.309 22.5997 27.387C22.5044 27.4563 22.4264 27.5473 22.3657 27.66C22.305 27.7727 22.2747 27.9157 22.2747 28.089C22.2747 28.2537 22.305 28.3923 22.3657 28.505C22.4264 28.6177 22.5087 28.7087 22.6127 28.778C22.7167 28.8387 22.838 28.882 22.9767 28.908C23.1154 28.934 23.2584 28.947 23.4057 28.947C23.7697 28.947 24.0514 28.8863 24.2507 28.765C24.45 28.6437 24.5974 28.5007 24.6927 28.336C24.788 28.1627 24.8444 27.9893 24.8617 27.816C24.8877 27.6427 24.9007 27.504 24.9007 27.4V26.711ZM28.1795 23.279V30H30.0255V26.971C30.0255 26.6677 30.0559 26.386 30.1165 26.126C30.1772 25.866 30.2769 25.6407 30.4155 25.45C30.5629 25.2507 30.7535 25.0947 30.9875 24.982C31.2215 24.8693 31.5075 24.813 31.8455 24.813C31.9582 24.813 32.0752 24.8217 32.1965 24.839C32.3179 24.8477 32.4219 24.8607 32.5085 24.878V23.162C32.3612 23.1187 32.2269 23.097 32.1055 23.097C31.8715 23.097 31.6462 23.1317 31.4295 23.201C31.2129 23.2703 31.0092 23.37 30.8185 23.5C30.6279 23.6213 30.4589 23.773 30.3115 23.955C30.1642 24.1283 30.0472 24.319 29.9605 24.527H29.9345V23.279H28.1795ZM35.5723 23.279V21.264H33.7263V23.279H32.6083V24.514H33.7263V28.479C33.7263 28.817 33.7826 29.09 33.8953 29.298C34.0079 29.506 34.1596 29.6663 34.3503 29.779C34.5496 29.8917 34.7749 29.9653 35.0263 30C35.2863 30.0433 35.5593 30.065 35.8453 30.065C36.0273 30.065 36.2136 30.0607 36.4043 30.052C36.5949 30.0433 36.7683 30.026 36.9243 30V28.57C36.8376 28.5873 36.7466 28.6003 36.6513 28.609C36.5559 28.6177 36.4563 28.622 36.3523 28.622C36.0403 28.622 35.8323 28.57 35.7283 28.466C35.6243 28.362 35.5723 28.154 35.5723 27.842V24.514H36.9243V23.279H35.5723ZM44.8138 28.791C44.5191 28.791 44.2678 28.7303 44.0597 28.609C43.8518 28.4877 43.6828 28.3317 43.5528 28.141C43.4314 27.9417 43.3404 27.712 43.2798 27.452C43.2278 27.192 43.2018 26.9277 43.2018 26.659C43.2018 26.3817 43.2278 26.113 43.2798 25.853C43.3318 25.593 43.4184 25.3633 43.5398 25.164C43.6698 24.9647 43.8344 24.8043 44.0338 24.683C44.2418 24.553 44.4974 24.488 44.8008 24.488C45.0954 24.488 45.3424 24.553 45.5418 24.683C45.7498 24.8043 45.9188 24.969 46.0488 25.177C46.1788 25.3763 46.2698 25.606 46.3218 25.866C46.3824 26.126 46.4128 26.3903 46.4128 26.659C46.4128 26.9277 46.3868 27.192 46.3348 27.452C46.2828 27.712 46.1918 27.9417 46.0618 28.141C45.9404 28.3317 45.7758 28.4877 45.5678 28.609C45.3684 28.7303 45.1171 28.791 44.8138 28.791ZM41.4208 23.279V32.353H43.2668V29.168H43.2928C43.5181 29.4973 43.8041 29.7487 44.1507 29.922C44.5061 30.0867 44.8918 30.169 45.3078 30.169C45.8018 30.169 46.2308 30.0737 46.5948 29.883C46.9674 29.6923 47.2751 29.4367 47.5178 29.116C47.7691 28.7953 47.9554 28.427 48.0768 28.011C48.1981 27.595 48.2588 27.1617 48.2588 26.711C48.2588 26.2343 48.1981 25.7793 48.0768 25.346C47.9554 24.904 47.7691 24.5183 47.5178 24.189C47.2664 23.8597 46.9501 23.5953 46.5688 23.396C46.1874 23.1967 45.7324 23.097 45.2038 23.097C44.7878 23.097 44.4064 23.1793 44.0597 23.344C43.7131 23.5087 43.4271 23.773 43.2018 24.137H43.1758V23.279H41.4208ZM49.29 25.346C49.316 24.9127 49.4243 24.553 49.615 24.267C49.8057 23.981 50.0483 23.7513 50.343 23.578C50.6377 23.4047 50.967 23.2833 51.331 23.214C51.7037 23.136 52.0763 23.097 52.449 23.097C52.787 23.097 53.1293 23.123 53.476 23.175C53.8227 23.2183 54.139 23.3093 54.425 23.448C54.711 23.5867 54.945 23.7817 55.127 24.033C55.309 24.2757 55.4 24.6007 55.4 25.008V28.505C55.4 28.8083 55.4173 29.0987 55.452 29.376C55.4867 29.6533 55.5473 29.8613 55.634 30H53.762C53.7273 29.896 53.697 29.792 53.671 29.688C53.6537 29.5753 53.6407 29.4627 53.632 29.35C53.3373 29.6533 52.9907 29.8657 52.592 29.987C52.1933 30.1083 51.786 30.169 51.37 30.169C51.0493 30.169 50.7503 30.13 50.473 30.052C50.1957 29.974 49.953 29.8527 49.745 29.688C49.537 29.5233 49.3723 29.3153 49.251 29.064C49.1383 28.8127 49.082 28.5137 49.082 28.167C49.082 27.7857 49.147 27.4737 49.277 27.231C49.4157 26.9797 49.589 26.7803 49.797 26.633C50.0137 26.4857 50.2563 26.3773 50.525 26.308C50.8023 26.23 51.0797 26.1693 51.357 26.126C51.6343 26.0827 51.9073 26.048 52.176 26.022C52.4447 25.996 52.683 25.957 52.891 25.905C53.099 25.853 53.2637 25.7793 53.385 25.684C53.5063 25.58 53.5627 25.4327 53.554 25.242C53.554 25.0427 53.5193 24.8867 53.45 24.774C53.3893 24.6527 53.3027 24.5617 53.19 24.501C53.086 24.4317 52.9603 24.3883 52.813 24.371C52.6743 24.345 52.5227 24.332 52.358 24.332C51.994 24.332 51.708 24.41 51.5 24.566C51.292 24.722 51.1707 24.982 51.136 25.346H49.29ZM53.554 26.711C53.476 26.7803 53.3763 26.8367 53.255 26.88C53.1423 26.9147 53.0167 26.945 52.878 26.971C52.748 26.997 52.6093 27.0187 52.462 27.036C52.3147 27.0533 52.1673 27.075 52.02 27.101C51.8813 27.127 51.7427 27.1617 51.604 27.205C51.474 27.2483 51.357 27.309 51.253 27.387C51.1577 27.4563 51.0797 27.5473 51.019 27.66C50.9583 27.7727 50.928 27.9157 50.928 28.089C50.928 28.2537 50.9583 28.3923 51.019 28.505C51.0797 28.6177 51.162 28.7087 51.266 28.778C51.37 28.8387 51.4913 28.882 51.63 28.908C51.7687 28.934 51.9117 28.947 52.059 28.947C52.423 28.947 52.7047 28.8863 52.904 28.765C53.1033 28.6437 53.2507 28.5007 53.346 28.336C53.4413 28.1627 53.4977 27.9893 53.515 27.816C53.541 27.6427 53.554 27.504 53.554 27.4V26.711ZM59.9659 28.414C59.6799 28.414 59.4415 28.3533 59.2509 28.232C59.0602 28.1107 58.9042 27.9547 58.7829 27.764C58.6702 27.5733 58.5879 27.361 58.5359 27.127C58.4925 26.8843 58.4709 26.6417 58.4709 26.399C58.4709 26.1477 58.4969 25.9093 58.5489 25.684C58.6095 25.45 58.7005 25.2463 58.8219 25.073C58.9519 24.891 59.1079 24.748 59.2899 24.644C59.4805 24.54 59.7059 24.488 59.9659 24.488C60.2692 24.488 60.5205 24.5443 60.7199 24.657C60.9192 24.7697 61.0795 24.9213 61.2009 25.112C61.3222 25.3027 61.4089 25.5237 61.4609 25.775C61.5129 26.0177 61.5389 26.2777 61.5389 26.555C61.5389 26.7977 61.5042 27.0317 61.4349 27.257C61.3742 27.4737 61.2789 27.6687 61.1489 27.842C61.0189 28.0153 60.8542 28.154 60.6549 28.258C60.4555 28.362 60.2259 28.414 59.9659 28.414ZM63.2939 29.571V23.279H61.5389V24.176H61.5129C61.2875 23.786 61.0059 23.5087 60.6679 23.344C60.3385 23.1793 59.9529 23.097 59.5109 23.097C59.0429 23.097 58.6269 23.188 58.2629 23.37C57.9075 23.552 57.6085 23.799 57.3659 24.111C57.1232 24.4143 56.9369 24.7697 56.8069 25.177C56.6855 25.5757 56.6249 25.9917 56.6249 26.425C56.6249 26.8843 56.6769 27.322 56.7809 27.738C56.8935 28.1453 57.0669 28.505 57.3009 28.817C57.5349 29.1203 57.8339 29.363 58.1979 29.545C58.5619 29.7183 58.9952 29.805 59.4979 29.805C59.9052 29.805 60.2909 29.7227 60.6549 29.558C61.0275 29.3847 61.3135 29.1203 61.5129 28.765H61.5389V29.649C61.5475 30.1257 61.4305 30.52 61.1879 30.832C60.9539 31.144 60.5769 31.3 60.0569 31.3C59.7275 31.3 59.4372 31.2307 59.1859 31.092C58.9345 30.962 58.7655 30.7237 58.6789 30.377H56.8459C56.8719 30.7583 56.9759 31.0833 57.1579 31.352C57.3485 31.6293 57.5825 31.8547 57.8599 32.028C58.1459 32.2013 58.4579 32.327 58.7959 32.405C59.1425 32.4917 59.4805 32.535 59.8099 32.535C60.5812 32.535 61.1965 32.431 61.6559 32.223C62.1152 32.015 62.4662 31.7593 62.7089 31.456C62.9515 31.1613 63.1075 30.8407 63.1769 30.494C63.2549 30.1473 63.2939 29.8397 63.2939 29.571ZM69.3041 25.918H66.3011C66.3098 25.788 66.3358 25.6407 66.3791 25.476C66.4311 25.3113 66.5135 25.1553 66.6261 25.008C66.7475 24.8607 66.9035 24.7393 67.0941 24.644C67.2935 24.54 67.5405 24.488 67.8351 24.488C68.2858 24.488 68.6195 24.6093 68.8361 24.852C69.0615 25.0947 69.2175 25.45 69.3041 25.918ZM66.3011 27.088H71.1501C71.1848 26.568 71.1415 26.0697 71.0201 25.593C70.8988 25.1163 70.6995 24.6917 70.4221 24.319C70.1535 23.9463 69.8068 23.6517 69.3821 23.435C68.9575 23.2097 68.4591 23.097 67.8871 23.097C67.3758 23.097 66.9078 23.188 66.4831 23.37C66.0671 23.552 65.7075 23.8033 65.4041 24.124C65.1008 24.436 64.8668 24.8087 64.7021 25.242C64.5375 25.6753 64.4551 26.1433 64.4551 26.646C64.4551 27.166 64.5331 27.6427 64.6891 28.076C64.8538 28.5093 65.0835 28.882 65.3781 29.194C65.6728 29.506 66.0325 29.7487 66.4571 29.922C66.8818 30.0867 67.3585 30.169 67.8871 30.169C68.6498 30.169 69.2998 29.9957 69.8371 29.649C70.3745 29.3023 70.7731 28.726 71.0331 27.92H69.4081C69.3475 28.128 69.1828 28.3273 68.9141 28.518C68.6455 28.7 68.3248 28.791 67.9521 28.791C67.4321 28.791 67.0335 28.6567 66.7561 28.388C66.4788 28.1193 66.3271 27.686 66.3011 27.088Z" fill="#231F20"/>
</g>
<rect x="7" y="38" width="22" height="1" fill="#0B0C0C"/>
<rect x="7" y="43" width="72" height="1" fill="#0B0C0C"/>
<rect x="7" y="53" width="72" height="1" fill="#0B0C0C"/>
<rect x="7" y="48" width="72" height="1" fill="#0B0C0C"/>
<rect x="7" y="58" width="40" height="1" fill="#0B0C0C"/>
<g filter="url(#filter0_i_1003_157)">
<rect x="7" y="64" width="26" height="10" fill="#00823B"/>
</g>
<defs>
<filter id="filter0_i_1003_157" x="7" y="64" width="26" height="10" filterUnits="userSpaceOnUse" color-interpolation-filters="sRGB">
<feFlood flood-opacity="0" result="BackgroundImageFix"/>
<feBlend mode="normal" in="SourceGraphic" in2="BackgroundImageFix" result="shape"/>
<feColorMatrix in="SourceAlpha" type="matrix" values="0 0 0 0 0 0 0 0 0 0 0 0 0 0 0 0 0 0 127 0" result="hardAlpha"/>
<feOffset dy="-1"/>
<feComposite in2="hardAlpha" operator="arithmetic" k2="-1" k3="1"/>
<feColorMatrix type="matrix" values="0 0 0 0 0 0 0 0 0 0.392157 0 0 0 0 0.207843 0 0 0 1 0"/>
<feBlend mode="normal" in2="shape" result="effect1_innerShadow_1003_157"/>
</filter>
<clipPath id="clip0_1003_157">
<rect width="80" height="16" fill="white" transform="translate(7 17)"/>
</clipPath>
</defs>
</svg>
